<?xml version="1.0" encoding="utf-8"?>
<!-- Generator: Adobe Illustrator 16.0.0, SVG Export Plug-In . SVG Version: 6.00 Build 0)  -->
<!DOCTYPE svg PUBLIC "-//W3C//DTD SVG 1.1//EN" "http://www.w3.org/Graphics/SVG/1.1/DTD/svg11.dtd">
<svg version="1.1" id="Layer_1" xmlns="http://www.w3.org/2000/svg" xmlns:xlink="http://www.w3.org/1999/xlink" x="0px" y="0px"
	 width="200px" height="40px" viewBox="0 0 200 40" enable-background="new 0 0 200 40" xml:space="preserve">
<g>
	<g>
		<path fill="#4D4D4D" d="M29.364,37.217c-0.063-0.113-0.185-0.086-0.278-0.109c-1.243-0.336-2.013-1.379-2.033-2.646
			c-0.046-2.829-0.015-5.66-0.02-8.487c0-0.164,0.048-0.213,0.208-0.234c0.273-0.037,0.503,0.011,0.741,0.158
			c0.459,0.279,0.932,0.541,1.409,0.787c0.18,0.092,0.225,0.2,0.224,0.397c-0.007,1.749,0.002,3.499-0.009,5.249
			c-0.001,0.252,0.068,0.298,0.296,0.298c4.515-0.007,9.032-0.009,13.547,0c0.244,0.003,0.289-0.071,0.288-0.306
			c-0.006-7.227-0.006-14.452,0-21.678c0-0.232-0.067-0.283-0.282-0.282c-1.795,0.009-3.592-0.001-5.387,0.014
			c-0.267,0.002-0.377-0.089-0.479-0.331c-0.215-0.51-0.431-1.021-0.748-1.539c0.572,0,1.092-0.004,1.613,0.001
			c0.252,0.002,0.495-0.037,0.491-0.355c-0.003-0.311-0.247-0.358-0.498-0.356c-0.62,0.003-1.239,0.002-1.859,0.004
			c-0.115,0-0.22,0.006-0.305-0.112c-0.494-0.674-1.066-1.276-1.676-1.829c0.032-0.108,0.108-0.069,0.162-0.069
			c2.918-0.002,5.838-0.006,8.757,0c1.259,0.002,2.323,0.87,2.65,2.131c0.018,0.066-0.021,0.159,0.074,0.194
			c0,8.922,0,17.845,0,26.767c-0.065,0.017-0.064,0.076-0.078,0.124c-0.329,1.204-1.063,1.951-2.282,2.163
			c-0.014,0.002-0.023,0.03-0.035,0.046c-0.042,0-0.085,0-0.126,0c-0.094-0.105-0.216-0.063-0.327-0.063
			c-4.529-0.002-9.059-0.002-13.588,0c-0.11,0-0.233-0.043-0.326,0.063C29.447,37.217,29.405,37.217,29.364,37.217z M36.673,33.818
			c-0.489-0.01-0.909,0.404-0.926,0.91c-0.016,0.513,0.394,0.959,0.898,0.979c0.496,0.018,0.93-0.414,0.938-0.932
			C37.591,34.249,37.191,33.829,36.673,33.818z"/>
		<path fill="#4E4E4E" d="M26.654,3.451c0.375,0.142,0.773,0.118,1.159,0.18c1.539,0.25,3.012,0.718,4.332,1.567
			c1.484,0.954,2.823,2.099,3.742,3.667c1.397,2.382,1.833,4.919,1.113,7.638c-0.363,1.368-1.028,2.557-1.886,3.656
			c-0.595,0.764-1.277,1.423-2.053,1.981c-0.143,0.102-0.178,0.213-0.172,0.377c0.04,1.279,0.494,2.394,1.3,3.354
			c0.5,0.6,1.023,1.176,1.534,1.762c0.067,0.079,0.188,0.158,0.118,0.271c-0.07,0.115-0.173-0.008-0.25-0.03
			c-2.645-0.752-5.106-1.942-7.456-3.378c-0.354-0.219-0.596-0.104-0.906-0.059c-0.699,0.099-1.406,0.131-2.106,0.061
			c-2.837-0.285-5.458-1.162-7.597-3.182c-1.768-1.667-2.918-3.707-3.22-6.195c-0.009-0.069,0.022-0.156-0.065-0.199
			c0-0.669,0-1.34,0-2.009c0.12-0.102,0.09-0.256,0.108-0.384c0.191-1.37,0.717-2.608,1.414-3.771
			c0.91-1.521,2.225-2.626,3.669-3.558c1.318-0.851,2.791-1.316,4.327-1.568c0.398-0.065,0.808-0.044,1.194-0.182
			C25.52,3.451,26.087,3.451,26.654,3.451z M31.561,24.507c0.047-0.079,0.025-0.155,0.003-0.223
			c-0.274-0.869-0.276-1.763-0.25-2.661c0.003-0.15,0.026-0.262,0.163-0.35c0.44-0.287,0.848-0.617,1.245-0.97
			c1.154-1.029,2.077-2.21,2.579-3.719c0.949-2.855,0.388-5.435-1.402-7.737c-1.6-2.057-3.824-3.069-6.27-3.567
			c-1.369-0.279-2.752-0.229-4.133,0.114c-2.515,0.625-4.687,1.767-6.203,4.012c-1.648,2.441-1.919,5.042-0.788,7.759
			c0.778,1.866,2.145,3.235,3.84,4.222c2.16,1.254,4.502,1.674,6.956,1.309c0.637-0.094,1.183-0.065,1.689,0.371
			c0.19,0.164,0.429,0.27,0.651,0.392C30.278,23.811,30.919,24.158,31.561,24.507z"/>
		<path fill="#4E4E4E" d="M29.489,37.217c0.093-0.105,0.216-0.063,0.326-0.063c4.53-0.002,9.059-0.002,13.588,0
			c0.111,0,0.233-0.045,0.327,0.063C38.983,37.217,34.236,37.217,29.489,37.217z"/>
	</g>
</g>
<text transform="matrix(1.0195 0 0 1 56.0894 36.0469)" font-family="'ErasITC-Light'" font-size="12.5">make happy customers</text>
<rect x="55" y="3" fill="none" width="145" height="28.258"/>
<text transform="matrix(1.0195 0 0 1 54.9995 26.0127)" fill="#18A4EA" font-family="'EthiopicAddis'" font-size="28.874">አሪፍCRM</text>
</svg>
