<?xml version="1.0" encoding="utf-8"?>
<!-- Generator: Adobe Illustrator 16.0.0, SVG Export Plug-In . SVG Version: 6.00 Build 0)  -->
<!DOCTYPE svg PUBLIC "-//W3C//DTD SVG 1.1//EN" "http://www.w3.org/Graphics/SVG/1.1/DTD/svg11.dtd">
<svg version="1.1" id="Layer_1" xmlns="http://www.w3.org/2000/svg" xmlns:xlink="http://www.w3.org/1999/xlink" x="0px" y="0px"
	 width="200px" height="40px" viewBox="0 0 200 40" enable-background="new 0 0 200 40" xml:space="preserve">
<g>
	<rect x="54.508" y="4.688" fill="none" width="155.274" height="28.271"/>
	<path fill="#3FA9F5" d="M63.776,13.675c2.707,0.448,4.638,1.298,5.796,2.548c1.586,1.717,2.38,3.761,2.38,6.132v4.647h-4.396
		v-4.647c0-1.157-0.378-2.174-1.134-3.052c-0.756-0.877-1.704-1.316-2.842-1.316c-1.138,0-2.086,0.439-2.842,1.316
		c-0.756,0.878-1.134,1.895-1.134,3.052v4.647h-4.396v-4.647c0-2.372,0.793-4.416,2.38-6.132c1.12-1.213,2.221-3.136,3.304-5.768
		l-1.96-0.028l0.028-5.684h3.696v3.136h2.296v2.576L63.776,13.675z"/>
	<path fill="#3FA9F5" d="M85,27.031h-7.728c-1.195,0-2.203-0.354-3.024-1.064c-0.822-0.709-1.232-1.65-1.232-2.826
		c0-0.69,0.102-1.383,0.308-2.072l2.8-16.324h4.928l-3.36,17.863h3.304v-4.591H85V27.031z"/>
	<path fill="#3FA9F5" d="M101.128,27.031h-4.452v-4.619c-3.79,0-6.487-0.688-8.092-2.059c-1.605-1.372-2.408-3.439-2.408-6.202
		c0-3.472,0.802-5.889,2.408-7.252c1.605-1.362,3.537-2.044,5.796-2.044h6.804v3.528H94.38c-1.083,0-2.002,0.341-2.758,1.022
		c-0.756,0.682-1.134,2.086-1.134,4.214H96.2c1.381,0,2.557,0.396,3.528,1.19c0.97,0.793,1.456,1.75,1.456,2.87v0.672
		c0,0.187-0.019,0.354-0.056,0.504h7.644v3.584l-7.644,0.026V27.031z M91.3,16.979l-0.42,1.904l5.32-0.028
		c0.485,0,0.728-0.168,0.728-0.504c0-0.448-0.019-0.728-0.056-0.84c-0.075-0.298-0.299-0.448-0.672-0.448L91.3,16.979z"/>
	<path fill="#3FA9F5" d="M115.072,12.527c0,2.203,0.326,3.304,0.979,3.304h6.889c1.643,0,3.039,0.537,4.186,1.61
		c1.148,1.074,1.723,2.581,1.723,4.521v0.562c0,0.672-0.574,1.582-1.723,2.729c-1.146,1.147-2.543,1.722-4.186,1.722h-11.313V22.58
		h11.313c0.281,0,0.518-0.038,0.715-0.113c0.195-0.074,0.293-0.438,0.293-1.092c0-0.933-0.336-1.399-1.008-1.399h-6.889
		c-1.624,0-3.015-0.537-4.172-1.61c-1.156-1.073-1.734-2.86-1.734-5.362v-1.54c0-1.866,0.578-3.453,1.734-4.76
		c1.157-1.307,2.548-1.96,4.172-1.96h11.342v4.312h-11.342c-0.262,0-0.488,0.322-0.688,0.966
		C115.17,10.666,115.072,11.501,115.072,12.527z"/>
	<path fill="#3FA9F5" d="M147.383,9.167c-0.766,0-1.418,0.275-1.959,0.826c-0.543,0.551-0.813,1.208-0.813,1.974v15.037h-4.453
		V11.967c0-0.765-0.27-1.423-0.811-1.974c-0.543-0.551-1.205-0.826-1.988-0.826c-0.767,0-1.42,0.275-1.961,0.826
		c-0.541,0.551-0.812,1.208-0.812,1.974v15.037h-4.453V11.967c0-1.997,0.709-3.7,2.13-5.11c1.418-1.409,3.116-2.114,5.096-2.114
		c1.94,0,3.61,0.672,5.012,2.016c1.418-1.344,3.09-2.016,5.012-2.016c1.998,0,3.705,0.705,5.125,2.114
		c1.418,1.41,2.127,3.113,2.127,5.11v15.037h-4.451V11.967c0-0.765-0.271-1.423-0.813-1.974
		C148.829,9.442,148.168,9.167,147.383,9.167z"/>
	<path fill="#3FA9F5" d="M160.936,12.527c0,2.203,0.326,3.304,0.98,3.304h6.887c1.643,0,3.039,0.537,4.186,1.61
		c1.148,1.074,1.724,2.581,1.724,4.521v0.562c0,0.672-0.573,1.582-1.724,2.729c-1.146,1.147-2.543,1.722-4.186,1.722H157.49V22.58
		h11.313c0.281,0,0.518-0.038,0.715-0.113c0.195-0.074,0.293-0.438,0.293-1.092c0-0.933-0.336-1.399-1.008-1.399h-6.887
		c-1.625,0-3.016-0.537-4.174-1.61c-1.156-1.073-1.734-2.86-1.734-5.362v-1.54c0-1.866,0.578-3.453,1.734-4.76
		c1.158-1.307,2.549-1.96,4.174-1.96h11.34v4.312h-11.34c-0.262,0-0.49,0.322-0.688,0.966
		C161.033,10.666,160.936,11.501,160.936,12.527z"/>
</g>
<g>
	<path fill="#4D4D4D" d="M55.17,35.489c0.056-0.804,0.107-1.839,0.153-3.108c0.046-1.27,0.069-2.255,0.069-2.957
		c0.657,0.003,1.275,0.006,1.853,0.006l1.622-0.006c-0.012,0.119-0.018,0.225-0.018,0.314l-0.355-0.028
		c-0.092-0.01-0.252-0.017-0.48-0.017c-0.228-0.002-0.452-0.004-0.671-0.004c-0.702,0-1.235,0.002-1.6,0.006l-0.09,2.55
		c0.447,0.01,0.858,0.014,1.231,0.014c0.444,0,0.992-0.004,1.645-0.014c-0.012,0.089-0.02,0.188-0.022,0.294l-1.676-0.014
		c-0.196,0-0.593,0.004-1.192,0.014l-0.089,2.67l1.274,0.005c0.5,0,0.848-0.002,1.042-0.007c0.194-0.004,0.458-0.016,0.792-0.033
		c-0.015,0.118-0.022,0.225-0.022,0.314c-0.711-0.002-1.231-0.004-1.56-0.004L55.17,35.489z"/>
	<path fill="#4D4D4D" d="M59.809,35.489l0.151-2.716L60,31.499c0.006-0.228,0.009-0.394,0.009-0.498
		c0.077,0.004,0.135,0.005,0.173,0.005c0.036,0,0.092-0.001,0.169-0.005l-0.06,1.015c0.065-0.141,0.119-0.246,0.162-0.317
		c0.043-0.073,0.102-0.15,0.176-0.233c0.074-0.083,0.162-0.16,0.264-0.232c0.103-0.072,0.226-0.135,0.369-0.184
		c0.143-0.049,0.291-0.084,0.442-0.105c0.151-0.022,0.301-0.033,0.449-0.033c0.249,0,0.49,0.027,0.725,0.084
		c0.234,0.057,0.428,0.152,0.583,0.291c0.154,0.138,0.26,0.297,0.318,0.476c0.058,0.181,0.086,0.371,0.086,0.575
		c0,0.094-0.004,0.229-0.013,0.409l-0.093,2.021l-0.018,0.726c-0.059-0.003-0.117-0.005-0.173-0.005
		c-0.056,0-0.113,0.002-0.169,0.005c0.029-0.37,0.053-0.726,0.07-1.062l0.062-1.139c0.023-0.421,0.035-0.725,0.035-0.911
		c0-0.194-0.028-0.37-0.084-0.524c-0.056-0.153-0.153-0.281-0.291-0.383c-0.138-0.104-0.301-0.178-0.491-0.224
		c-0.19-0.046-0.385-0.069-0.586-0.069c-0.281,0-0.53,0.039-0.746,0.116c-0.204,0.074-0.383,0.183-0.538,0.326
		c-0.154,0.144-0.28,0.325-0.377,0.545c-0.074,0.159-0.13,0.383-0.168,0.671c-0.036,0.248-0.064,0.655-0.086,1.221
		c-0.022,0.563-0.033,1.041-0.033,1.433c-0.077-0.003-0.137-0.005-0.178-0.005S59.886,35.486,59.809,35.489z"/>
	<path fill="#4D4D4D" d="M65.27,31.473c0.021-0.101,0.037-0.217,0.049-0.347c0.302-0.083,0.564-0.14,0.787-0.171
		s0.447-0.047,0.675-0.047c0.264,0,0.509,0.021,0.735,0.068c0.227,0.047,0.412,0.123,0.556,0.23c0.144,0.107,0.238,0.23,0.284,0.371
		c0.046,0.14,0.069,0.281,0.069,0.427c0,0.147-0.005,0.335-0.016,0.562c-0.01,0.228-0.024,0.472-0.042,0.731
		c-0.018,0.261-0.034,0.586-0.048,0.976c-0.015,0.39-0.022,0.67-0.022,0.843v0.373c-0.077-0.003-0.139-0.005-0.187-0.005
		c-0.051,0-0.113,0.002-0.187,0.005c0.042-0.453,0.07-0.82,0.086-1.103c0.016-0.281,0.03-0.585,0.04-0.908
		c0.01-0.324,0.024-0.627,0.042-0.908c-0.092,0.076-0.162,0.134-0.211,0.171c-0.049,0.036-0.102,0.069-0.16,0.1
		c-0.058,0.029-0.127,0.06-0.208,0.091c-0.081,0.031-0.156,0.059-0.225,0.08c-0.068,0.021-0.233,0.068-0.495,0.141
		c-0.262,0.07-0.45,0.123-0.562,0.158c-0.255,0.084-0.452,0.162-0.591,0.235c-0.151,0.08-0.277,0.169-0.377,0.267
		c-0.089,0.086-0.154,0.177-0.195,0.271c-0.048,0.111-0.071,0.23-0.071,0.359c0,0.191,0.058,0.358,0.173,0.5
		c0.115,0.143,0.261,0.242,0.438,0.301c0.177,0.058,0.389,0.086,0.638,0.086c0.125,0,0.245-0.007,0.36-0.02
		c0.116-0.015,0.225-0.031,0.327-0.055s0.25-0.064,0.442-0.127c-0.027,0.113-0.049,0.227-0.067,0.338
		c-0.24,0.049-0.435,0.078-0.584,0.092s-0.291,0.021-0.424,0.021c-0.249,0-0.479-0.021-0.688-0.058
		c-0.21-0.039-0.387-0.114-0.529-0.228c-0.142-0.112-0.248-0.242-0.315-0.392c-0.068-0.146-0.102-0.303-0.102-0.465
		c0-0.125,0.021-0.246,0.062-0.361c0.042-0.117,0.105-0.229,0.191-0.335c0.071-0.089,0.166-0.173,0.284-0.249
		c0.139-0.096,0.293-0.176,0.462-0.239c0.195-0.077,0.405-0.147,0.63-0.213c0.063-0.019,0.307-0.082,0.733-0.19
		c0.192-0.051,0.375-0.113,0.546-0.188c0.172-0.075,0.305-0.181,0.4-0.315c0.095-0.134,0.142-0.271,0.142-0.41
		c0-0.101-0.022-0.196-0.066-0.291c-0.044-0.094-0.124-0.182-0.238-0.265c-0.114-0.083-0.255-0.141-0.424-0.173
		c-0.169-0.033-0.347-0.049-0.533-0.049c-0.216,0-0.419,0.014-0.608,0.042s-0.35,0.061-0.479,0.098
		C65.633,31.334,65.468,31.393,65.27,31.473z"/>
	<path fill="#4D4D4D" d="M69.584,35.489l0.035-0.439l0.126-3.661l0.047-1.965c0.077,0.003,0.14,0.006,0.187,0.006
		c0.05,0,0.114-0.003,0.191-0.006c-0.033,0.335-0.056,0.667-0.068,0.995l-0.032,0.692c0.326-0.082,0.6-0.137,0.821-0.163
		c0.221-0.026,0.44-0.04,0.657-0.04c0.376,0,0.705,0.047,0.986,0.14c0.28,0.095,0.512,0.249,0.694,0.468
		c0.182,0.217,0.312,0.459,0.387,0.727c0.075,0.267,0.114,0.547,0.114,0.84c0,0.329-0.045,0.646-0.134,0.957
		c-0.089,0.311-0.228,0.589-0.416,0.836s-0.415,0.427-0.681,0.537c-0.265,0.111-0.56,0.167-0.883,0.167
		c-0.187,0-0.365-0.022-0.536-0.065c-0.171-0.046-0.32-0.105-0.449-0.184c-0.129-0.077-0.237-0.162-0.323-0.255
		c-0.086-0.095-0.154-0.188-0.205-0.28c-0.05-0.094-0.102-0.22-0.155-0.38l-0.01,1.075c-0.076-0.004-0.136-0.006-0.18-0.006
		C69.719,35.484,69.661,35.486,69.584,35.489z M70.063,31.428c-0.022,0.602-0.04,0.993-0.051,1.174
		c-0.012,0.182-0.017,0.393-0.017,0.635c0,0.316,0.023,0.599,0.071,0.844s0.14,0.464,0.276,0.656
		c0.136,0.191,0.313,0.339,0.531,0.44c0.218,0.103,0.459,0.152,0.723,0.152c0.267,0,0.516-0.052,0.747-0.153
		c0.231-0.102,0.424-0.263,0.578-0.48c0.154-0.219,0.272-0.477,0.354-0.771c0.082-0.295,0.123-0.589,0.123-0.882
		c0-0.414-0.08-0.77-0.238-1.063c-0.159-0.295-0.371-0.506-0.636-0.633c-0.266-0.127-0.578-0.19-0.937-0.19
		c-0.219,0-0.448,0.02-0.685,0.058C70.665,31.253,70.384,31.324,70.063,31.428z"/>
	<path fill="#4D4D4D" d="M74.708,35.489c0.136-2.472,0.216-4.492,0.24-6.065c0.077,0.003,0.138,0.006,0.182,0.006
		s0.105-0.003,0.182-0.006L75.2,31.588l-0.128,3.901c-0.077-0.003-0.138-0.005-0.182-0.005S74.785,35.486,74.708,35.489z"/>
	<path fill="#4D4D4D" d="M76.44,35.489c0.034-0.444,0.072-1.22,0.116-2.324s0.066-1.826,0.066-2.164
		c0.076,0.004,0.135,0.005,0.176,0.005c0.044,0,0.104-0.001,0.18-0.005c-0.041,0.563-0.082,1.331-0.122,2.302
		c-0.04,0.973-0.06,1.701-0.06,2.188c-0.077-0.004-0.136-0.006-0.178-0.006S76.518,35.486,76.44,35.489z M76.605,29.864l0.013-0.44
		c0.074,0.003,0.149,0.006,0.227,0.006c0.078,0,0.152-0.003,0.227-0.006l-0.013,0.44c-0.074-0.007-0.15-0.009-0.227-0.009
		C76.754,29.855,76.679,29.857,76.605,29.864z"/>
	<path fill="#4D4D4D" d="M78.076,35.489l0.151-2.716l0.04-1.274c0.006-0.228,0.009-0.394,0.009-0.498
		c0.077,0.004,0.135,0.005,0.173,0.005c0.036,0,0.092-0.001,0.169-0.005l-0.06,1.015c0.065-0.141,0.119-0.246,0.162-0.317
		c0.043-0.073,0.102-0.15,0.176-0.233s0.162-0.16,0.264-0.232c0.103-0.072,0.226-0.135,0.369-0.184
		c0.143-0.049,0.291-0.084,0.442-0.105c0.151-0.022,0.301-0.033,0.449-0.033c0.249,0,0.49,0.027,0.725,0.084
		c0.234,0.057,0.428,0.152,0.583,0.291c0.154,0.138,0.26,0.297,0.318,0.476c0.058,0.181,0.086,0.371,0.086,0.575
		c0,0.094-0.004,0.229-0.013,0.409l-0.093,2.021l-0.018,0.726c-0.059-0.003-0.117-0.005-0.173-0.005s-0.113,0.002-0.169,0.005
		c0.029-0.37,0.053-0.726,0.07-1.062l0.062-1.139c0.023-0.421,0.035-0.725,0.035-0.911c0-0.194-0.028-0.37-0.084-0.524
		c-0.056-0.153-0.153-0.281-0.291-0.383c-0.138-0.104-0.301-0.178-0.491-0.224c-0.19-0.046-0.385-0.069-0.586-0.069
		c-0.281,0-0.53,0.039-0.746,0.116c-0.204,0.074-0.383,0.183-0.538,0.326c-0.154,0.144-0.28,0.325-0.377,0.545
		c-0.074,0.159-0.13,0.383-0.168,0.671c-0.036,0.248-0.064,0.655-0.086,1.221c-0.022,0.563-0.033,1.041-0.033,1.433
		c-0.077-0.003-0.137-0.005-0.178-0.005S78.153,35.486,78.076,35.489z"/>
	<path fill="#4D4D4D" d="M83.523,37.111c0.391,0.111,0.714,0.188,0.969,0.227c0.254,0.038,0.489,0.059,0.702,0.059
		c0.252,0,0.486-0.032,0.702-0.099c0.199-0.057,0.367-0.135,0.507-0.235c0.125-0.092,0.221-0.193,0.289-0.307
		c0.08-0.134,0.14-0.3,0.18-0.498c0.04-0.197,0.064-0.412,0.073-0.64c0.021-0.367,0.037-0.782,0.046-1.244
		c-0.06,0.144-0.11,0.254-0.153,0.335c-0.043,0.082-0.103,0.168-0.18,0.258c-0.077,0.092-0.167,0.172-0.269,0.245
		c-0.102,0.072-0.219,0.138-0.351,0.195c-0.132,0.057-0.278,0.103-0.438,0.136c-0.16,0.032-0.326,0.049-0.498,0.049
		c-0.276,0-0.531-0.035-0.767-0.107c-0.236-0.069-0.446-0.189-0.631-0.358c-0.186-0.169-0.325-0.386-0.42-0.651
		c-0.095-0.265-0.143-0.543-0.143-0.836c0-0.4,0.071-0.785,0.213-1.152c0.142-0.366,0.344-0.67,0.606-0.907
		c0.262-0.238,0.565-0.41,0.909-0.515c0.344-0.104,0.715-0.154,1.115-0.154c0.406,0,0.897,0.052,1.476,0.154l-0.045,0.512
		c-0.009,0.099-0.018,0.226-0.027,0.383l-0.099,2.035l-0.051,1.861c-0.012,0.223-0.042,0.418-0.089,0.59
		c-0.05,0.185-0.127,0.35-0.231,0.494c-0.104,0.146-0.234,0.269-0.391,0.369c-0.157,0.101-0.355,0.18-0.595,0.239
		c-0.261,0.063-0.554,0.099-0.88,0.099c-0.24,0-0.474-0.014-0.702-0.039c-0.229-0.024-0.494-0.072-0.795-0.145
		C83.548,37.341,83.538,37.225,83.523,37.111z M87.104,31.271c-0.281-0.054-0.506-0.086-0.675-0.098
		c-0.168-0.012-0.318-0.018-0.449-0.018c-0.34,0-0.656,0.037-0.946,0.115c-0.29,0.076-0.556,0.223-0.797,0.436
		c-0.241,0.213-0.429,0.486-0.562,0.822c-0.133,0.335-0.2,0.681-0.2,1.039c0,0.344,0.062,0.654,0.184,0.934
		c0.123,0.277,0.314,0.488,0.573,0.629c0.259,0.141,0.546,0.211,0.86,0.211c0.213,0,0.412-0.023,0.596-0.07
		c0.142-0.035,0.276-0.094,0.402-0.172s0.247-0.183,0.362-0.313c0.116-0.13,0.217-0.283,0.305-0.46
		c0.087-0.177,0.15-0.356,0.188-0.54c0.05-0.258,0.085-0.588,0.106-0.99L87.104,31.271z"/>
	<path fill="#4D4D4D" d="M90.855,35.489l0.035-0.439l0.126-3.661l0.047-1.965c0.077,0.003,0.14,0.006,0.187,0.006
		c0.05,0,0.114-0.003,0.191-0.006c-0.033,0.335-0.056,0.667-0.068,0.995l-0.032,0.692c0.326-0.082,0.6-0.137,0.821-0.163
		c0.221-0.026,0.44-0.04,0.657-0.04c0.376,0,0.705,0.047,0.986,0.14c0.28,0.095,0.512,0.249,0.694,0.468
		c0.182,0.217,0.312,0.459,0.387,0.727C94.961,32.509,95,32.789,95,33.082c0,0.329-0.045,0.646-0.134,0.957
		c-0.089,0.311-0.228,0.589-0.416,0.836s-0.415,0.427-0.681,0.537c-0.265,0.111-0.56,0.167-0.883,0.167
		c-0.187,0-0.365-0.022-0.536-0.065c-0.171-0.046-0.32-0.105-0.449-0.184c-0.129-0.077-0.237-0.162-0.323-0.255
		c-0.086-0.095-0.154-0.188-0.205-0.28c-0.05-0.094-0.102-0.22-0.155-0.38l-0.01,1.075c-0.076-0.004-0.136-0.006-0.18-0.006
		C90.99,35.484,90.931,35.486,90.855,35.489z M91.334,31.428c-0.022,0.602-0.04,0.993-0.051,1.174
		c-0.012,0.182-0.017,0.393-0.017,0.635c0,0.316,0.023,0.599,0.071,0.844s0.14,0.464,0.276,0.656
		c0.136,0.191,0.313,0.339,0.531,0.44c0.218,0.103,0.459,0.152,0.723,0.152c0.267,0,0.516-0.052,0.747-0.153
		c0.231-0.102,0.424-0.263,0.578-0.48c0.154-0.219,0.272-0.477,0.354-0.771c0.082-0.295,0.123-0.589,0.123-0.882
		c0-0.414-0.08-0.77-0.238-1.063c-0.159-0.295-0.371-0.506-0.636-0.633c-0.266-0.127-0.578-0.19-0.937-0.19
		c-0.219,0-0.448,0.02-0.685,0.058C91.936,31.253,91.655,31.324,91.334,31.428z"/>
	<path fill="#4D4D4D" d="M99.333,35.05c-0.023,0.11-0.042,0.224-0.053,0.337c-0.246,0.071-0.466,0.121-0.662,0.149
		c-0.195,0.028-0.396,0.042-0.6,0.042c-0.355,0-0.67-0.049-0.944-0.145c-0.274-0.097-0.509-0.257-0.704-0.479
		c-0.196-0.224-0.335-0.474-0.418-0.752s-0.125-0.574-0.125-0.888c0-0.412,0.071-0.797,0.213-1.156
		c0.142-0.36,0.376-0.658,0.702-0.895c0.326-0.238,0.73-0.355,1.213-0.355c0.332,0,0.632,0.063,0.902,0.185
		c0.269,0.123,0.479,0.323,0.628,0.603s0.225,0.609,0.225,0.99c0,0.071-0.003,0.141-0.009,0.205l-3.52,0.004
		c-0.015,0.192-0.022,0.338-0.022,0.436c0,0.281,0.042,0.553,0.125,0.816c0.083,0.263,0.208,0.482,0.376,0.66
		c0.167,0.178,0.369,0.31,0.603,0.396c0.234,0.085,0.482,0.128,0.743,0.128C98.404,35.329,98.846,35.236,99.333,35.05z
		 M96.222,32.65l3.164,0.004c-0.003-0.204-0.015-0.361-0.036-0.471s-0.059-0.224-0.115-0.338c-0.057-0.115-0.124-0.217-0.203-0.301
		c-0.079-0.085-0.171-0.154-0.276-0.214c-0.105-0.058-0.223-0.101-0.354-0.131c-0.13-0.029-0.267-0.044-0.409-0.044
		c-0.157,0-0.312,0.018-0.463,0.053c-0.151,0.036-0.289,0.085-0.414,0.146c-0.125,0.063-0.241,0.142-0.349,0.237
		c-0.108,0.097-0.197,0.2-0.267,0.313c-0.07,0.111-0.123,0.22-0.16,0.322C96.303,32.332,96.264,32.473,96.222,32.65z"/>
	<path fill="#4D4D4D" d="M102.367,35.209c-0.023,0.089-0.041,0.184-0.053,0.28c-0.24,0.06-0.461,0.089-0.662,0.089
		c-0.17,0-0.319-0.02-0.451-0.057c-0.131-0.037-0.239-0.104-0.322-0.199s-0.138-0.202-0.165-0.319
		c-0.026-0.117-0.04-0.242-0.04-0.376c0-0.023,0.001-0.061,0.002-0.109c0.001-0.052,0.008-0.162,0.016-0.334l0.148-2.941h-0.548
		c0.012-0.08,0.019-0.16,0.022-0.24h0.542c0.017-0.188,0.028-0.465,0.037-0.835c0.112-0.015,0.209-0.034,0.293-0.058
		c-0.021,0.479-0.031,0.776-0.031,0.893h1.334c-0.012,0.08-0.021,0.16-0.023,0.24h-1.326l-0.145,3.045l-0.004,0.182
		c0,0.249,0.027,0.43,0.087,0.542c0.058,0.112,0.139,0.193,0.243,0.244c0.105,0.05,0.216,0.075,0.328,0.075
		c0.08,0,0.164-0.006,0.256-0.02C101.994,35.297,102.148,35.264,102.367,35.209z"/>
	<path fill="#4D4D4D" d="M104.873,35.209c-0.023,0.089-0.041,0.184-0.053,0.28c-0.24,0.06-0.461,0.089-0.662,0.089
		c-0.17,0-0.319-0.02-0.451-0.057c-0.131-0.037-0.238-0.104-0.322-0.199c-0.082-0.096-0.137-0.202-0.164-0.319
		s-0.039-0.242-0.039-0.376c0-0.023,0-0.061,0.002-0.109c0.002-0.052,0.006-0.162,0.017-0.334l0.147-2.941h-0.549
		c0.012-0.08,0.02-0.16,0.021-0.24h0.543c0.016-0.188,0.027-0.465,0.037-0.835c0.111-0.015,0.209-0.034,0.291-0.058
		c-0.021,0.479-0.031,0.776-0.031,0.893h1.334c-0.012,0.08-0.02,0.16-0.023,0.24h-1.326l-0.145,3.045l-0.005,0.182
		c0,0.249,0.028,0.43,0.087,0.542s0.139,0.193,0.244,0.244c0.105,0.05,0.215,0.075,0.326,0.075c0.08,0,0.166-0.006,0.257-0.02
		S104.654,35.264,104.873,35.209z"/>
	<path fill="#4D4D4D" d="M108.93,35.05c-0.022,0.11-0.041,0.224-0.053,0.337c-0.246,0.071-0.467,0.121-0.662,0.149
		s-0.396,0.042-0.6,0.042c-0.355,0-0.67-0.049-0.944-0.145c-0.274-0.097-0.509-0.257-0.704-0.479
		c-0.195-0.224-0.335-0.474-0.418-0.752s-0.125-0.574-0.125-0.888c0-0.412,0.072-0.797,0.215-1.156
		c0.141-0.36,0.375-0.658,0.701-0.895c0.326-0.238,0.73-0.355,1.213-0.355c0.332,0,0.633,0.063,0.902,0.185
		c0.27,0.123,0.479,0.323,0.629,0.603c0.148,0.277,0.225,0.609,0.225,0.99c0,0.071-0.004,0.141-0.01,0.205l-3.52,0.004
		c-0.014,0.192-0.021,0.338-0.021,0.436c0,0.281,0.041,0.553,0.125,0.816c0.082,0.263,0.208,0.482,0.375,0.66
		c0.168,0.178,0.369,0.31,0.604,0.396c0.234,0.085,0.482,0.128,0.744,0.128C108.002,35.329,108.443,35.236,108.93,35.05z
		 M105.82,32.65l3.162,0.004c-0.002-0.204-0.015-0.361-0.035-0.471s-0.059-0.224-0.115-0.338c-0.057-0.115-0.123-0.217-0.202-0.301
		c-0.079-0.085-0.171-0.154-0.276-0.214c-0.104-0.058-0.223-0.101-0.354-0.131c-0.131-0.029-0.268-0.044-0.409-0.044
		c-0.157,0-0.312,0.018-0.463,0.053c-0.151,0.036-0.289,0.085-0.413,0.146c-0.125,0.063-0.242,0.142-0.35,0.237
		c-0.108,0.097-0.197,0.2-0.268,0.313c-0.07,0.111-0.123,0.22-0.16,0.322C105.9,32.332,105.861,32.473,105.82,32.65z"/>
	<path fill="#4D4D4D" d="M110.131,35.489c0.035-0.625,0.068-1.359,0.102-2.204c0.033-0.844,0.05-1.473,0.05-1.885l-0.005-0.399
		c0.06,0.004,0.113,0.005,0.164,0.005c0.054,0,0.107-0.001,0.164-0.005l-0.039,0.84c0.101-0.2,0.193-0.354,0.279-0.457
		s0.187-0.19,0.301-0.26c0.113-0.069,0.246-0.123,0.398-0.16c0.153-0.037,0.313-0.056,0.479-0.056c0.121,0,0.244,0.015,0.369,0.044
		c0,0.103,0.006,0.202,0.019,0.303c-0.199-0.051-0.371-0.075-0.517-0.075c-0.143,0-0.271,0.02-0.385,0.059
		c-0.113,0.037-0.221,0.095-0.32,0.169c-0.1,0.073-0.196,0.175-0.291,0.304c-0.096,0.129-0.166,0.268-0.213,0.411
		c-0.061,0.169-0.1,0.375-0.121,0.618c-0.03,0.379-0.051,0.812-0.06,1.297c-0.011,0.654-0.017,1.14-0.017,1.453
		c-0.078-0.004-0.139-0.006-0.18-0.006S110.208,35.486,110.131,35.489z"/>
	<path fill="#4D4D4D" d="M118.387,35.129c-0.029,0.122-0.052,0.234-0.063,0.338c-0.376,0.074-0.728,0.111-1.054,0.111
		c-0.308,0-0.596-0.043-0.863-0.129s-0.498-0.225-0.69-0.415s-0.336-0.431-0.43-0.72c-0.093-0.289-0.14-0.592-0.14-0.907
		c0-0.433,0.072-0.843,0.22-1.234c0.146-0.39,0.381-0.698,0.702-0.925c0.32-0.227,0.756-0.34,1.305-0.34
		c0.398,0,0.779,0.055,1.143,0.164c0.002,0.098,0.014,0.201,0.03,0.312c-0.31-0.095-0.55-0.155-0.726-0.185
		c-0.174-0.029-0.334-0.042-0.479-0.042c-0.313,0-0.587,0.06-0.826,0.18c-0.24,0.12-0.438,0.289-0.598,0.509
		c-0.159,0.219-0.271,0.463-0.338,0.733s-0.102,0.543-0.102,0.815c0,0.293,0.037,0.565,0.111,0.819
		c0.074,0.255,0.192,0.462,0.355,0.622c0.162,0.159,0.363,0.281,0.6,0.366c0.237,0.084,0.486,0.126,0.747,0.126
		c0.146,0,0.299-0.014,0.462-0.042S118.128,35.206,118.387,35.129z"/>
	<path fill="#4D4D4D" d="M121.514,30.908c0.275,0,0.543,0.037,0.801,0.115c0.258,0.076,0.484,0.207,0.682,0.394
		s0.348,0.429,0.451,0.728c0.103,0.299,0.154,0.615,0.154,0.951c0,0.36-0.055,0.707-0.164,1.038
		c-0.108,0.332-0.265,0.609-0.467,0.833c-0.201,0.225-0.438,0.383-0.707,0.475c-0.271,0.092-0.561,0.138-0.865,0.138
		c-0.213,0-0.422-0.024-0.629-0.073c-0.205-0.049-0.397-0.131-0.578-0.247c-0.178-0.114-0.336-0.265-0.471-0.448
		c-0.135-0.183-0.236-0.4-0.307-0.652s-0.104-0.514-0.104-0.786c0-0.478,0.088-0.913,0.267-1.31
		c0.178-0.396,0.442-0.687,0.798-0.873C120.729,31.001,121.107,30.908,121.514,30.908z M121.505,31.157
		c-0.353,0-0.68,0.086-0.981,0.257c-0.303,0.172-0.524,0.434-0.666,0.786c-0.144,0.352-0.215,0.737-0.215,1.157
		c0,0.297,0.041,0.574,0.123,0.836c0.082,0.26,0.213,0.479,0.394,0.658s0.376,0.303,0.585,0.373
		c0.208,0.069,0.429,0.104,0.658,0.104c0.265,0,0.512-0.043,0.742-0.129c0.231-0.085,0.436-0.229,0.611-0.43
		s0.307-0.449,0.389-0.742c0.084-0.293,0.125-0.604,0.125-0.932c0-0.306-0.041-0.592-0.123-0.859
		c-0.08-0.269-0.207-0.481-0.379-0.645c-0.172-0.16-0.367-0.273-0.588-0.339C121.961,31.189,121.734,31.157,121.505,31.157z"/>
	<path fill="#4D4D4D" d="M124.549,35.489l0.049-0.604c0.01-0.121,0.018-0.242,0.022-0.363l0.114-2.965
		c0.004-0.216,0.004-0.4,0.004-0.556c0.061,0.004,0.117,0.005,0.175,0.005s0.112-0.001,0.169-0.005l-0.046,0.935
		c0.095-0.182,0.183-0.324,0.263-0.428c0.079-0.104,0.188-0.203,0.321-0.298s0.289-0.169,0.463-0.222
		c0.173-0.055,0.353-0.08,0.539-0.08c0.16,0,0.313,0.021,0.458,0.063c0.146,0.041,0.27,0.094,0.371,0.155s0.188,0.132,0.256,0.209
		c0.066,0.077,0.12,0.157,0.156,0.239c0.037,0.083,0.074,0.197,0.109,0.343c0.06-0.116,0.115-0.216,0.17-0.3
		c0.053-0.085,0.125-0.172,0.215-0.262c0.091-0.088,0.197-0.166,0.322-0.231c0.125-0.067,0.264-0.119,0.416-0.158
		c0.151-0.038,0.309-0.058,0.469-0.058c0.246,0,0.479,0.042,0.697,0.127c0.219,0.084,0.389,0.22,0.51,0.406
		c0.119,0.186,0.181,0.41,0.181,0.67c0,0.146-0.011,0.365-0.031,0.66s-0.044,0.715-0.067,1.258c-0.025,0.544-0.041,1.029-0.043,1.46
		c-0.078-0.003-0.137-0.005-0.179-0.005c-0.041,0-0.101,0.002-0.178,0.005c0.026-0.364,0.054-0.8,0.08-1.308l0.065-1.222
		c0.02-0.306,0.027-0.558,0.027-0.755c0-0.104-0.005-0.193-0.014-0.27c-0.01-0.076-0.029-0.149-0.061-0.223
		c-0.031-0.072-0.076-0.143-0.136-0.207s-0.131-0.122-0.216-0.171c-0.084-0.049-0.186-0.087-0.305-0.114
		c-0.119-0.029-0.244-0.044-0.377-0.044c-0.193,0-0.371,0.03-0.533,0.091c-0.163,0.059-0.311,0.143-0.44,0.25
		s-0.237,0.236-0.321,0.387s-0.154,0.354-0.207,0.615c-0.047,0.223-0.078,0.619-0.098,1.19l-0.049,1.776
		c-0.077-0.002-0.137-0.004-0.178-0.004c-0.043,0-0.103,0.002-0.18,0.004c0.03-0.405,0.053-0.803,0.068-1.189l0.055-1.12
		c0.018-0.354,0.025-0.649,0.025-0.884c0-0.221-0.021-0.391-0.063-0.507c-0.041-0.117-0.108-0.224-0.203-0.313
		c-0.092-0.093-0.209-0.164-0.351-0.218c-0.142-0.052-0.296-0.078-0.465-0.078c-0.185,0-0.358,0.031-0.526,0.093
		c-0.168,0.061-0.316,0.146-0.447,0.258s-0.24,0.248-0.332,0.41c-0.09,0.162-0.164,0.377-0.219,0.644
		c-0.049,0.231-0.086,0.646-0.111,1.235c-0.029,0.656-0.045,1.213-0.045,1.672c-0.076-0.004-0.135-0.006-0.178-0.006
		C124.686,35.484,124.626,35.486,124.549,35.489z"/>
	<path fill="#4D4D4D" d="M132.063,35.489l0.049-0.604c0.01-0.121,0.018-0.242,0.022-0.363l0.115-2.965
		c0.003-0.216,0.004-0.4,0.004-0.556c0.06,0.004,0.117,0.005,0.174,0.005c0.058,0,0.112-0.001,0.169-0.005l-0.046,0.935
		c0.095-0.182,0.183-0.324,0.263-0.428s0.188-0.203,0.321-0.298s0.289-0.169,0.464-0.222c0.172-0.055,0.353-0.08,0.539-0.08
		c0.159,0,0.313,0.021,0.457,0.063c0.146,0.041,0.27,0.094,0.371,0.155s0.188,0.132,0.256,0.209c0.067,0.077,0.12,0.157,0.157,0.239
		c0.037,0.083,0.073,0.197,0.108,0.343c0.06-0.116,0.115-0.216,0.17-0.3c0.053-0.085,0.125-0.172,0.215-0.262
		c0.091-0.088,0.197-0.166,0.322-0.231c0.125-0.067,0.264-0.119,0.416-0.158c0.151-0.038,0.309-0.058,0.469-0.058
		c0.246,0,0.479,0.042,0.697,0.127c0.22,0.084,0.39,0.22,0.51,0.406c0.119,0.186,0.181,0.41,0.181,0.67
		c0,0.146-0.011,0.365-0.03,0.66c-0.021,0.295-0.045,0.715-0.068,1.258c-0.025,0.544-0.04,1.029-0.043,1.46
		c-0.077-0.003-0.137-0.005-0.178-0.005s-0.102,0.002-0.179,0.005c0.026-0.364,0.054-0.8,0.08-1.308l0.065-1.222
		c0.02-0.306,0.027-0.558,0.027-0.755c0-0.104-0.005-0.193-0.014-0.27s-0.029-0.149-0.061-0.223
		c-0.03-0.072-0.076-0.143-0.135-0.207c-0.061-0.064-0.132-0.122-0.217-0.171c-0.084-0.049-0.186-0.087-0.305-0.114
		c-0.118-0.029-0.244-0.044-0.377-0.044c-0.193,0-0.371,0.03-0.533,0.091c-0.163,0.059-0.311,0.143-0.439,0.25
		c-0.131,0.107-0.238,0.236-0.322,0.387s-0.153,0.354-0.206,0.615c-0.048,0.223-0.079,0.619-0.099,1.19l-0.049,1.776
		c-0.076-0.002-0.137-0.004-0.178-0.004c-0.042,0-0.102,0.002-0.18,0.004c0.031-0.405,0.054-0.803,0.068-1.189l0.055-1.12
		c0.018-0.354,0.025-0.649,0.025-0.884c0-0.221-0.021-0.391-0.063-0.507c-0.041-0.117-0.108-0.224-0.202-0.313
		c-0.093-0.093-0.21-0.164-0.351-0.218c-0.143-0.052-0.297-0.078-0.465-0.078c-0.186,0-0.359,0.031-0.527,0.093
		c-0.168,0.061-0.316,0.146-0.447,0.258c-0.13,0.111-0.24,0.248-0.331,0.41s-0.164,0.377-0.22,0.644
		c-0.049,0.231-0.086,0.646-0.111,1.235c-0.029,0.656-0.044,1.213-0.044,1.672c-0.077-0.004-0.136-0.006-0.179-0.006
		C132.199,35.484,132.141,35.486,132.063,35.489z"/>
	<path fill="#4D4D4D" d="M143.495,35.489c-0.06-0.003-0.114-0.005-0.164-0.005c-0.052,0-0.104,0.002-0.165,0.005l0.036-0.964
		c-0.067,0.149-0.123,0.26-0.166,0.326c-0.043,0.065-0.099,0.137-0.167,0.211c-0.068,0.073-0.153,0.145-0.256,0.211
		s-0.223,0.123-0.361,0.17c-0.141,0.049-0.281,0.082-0.43,0.104c-0.146,0.021-0.295,0.031-0.441,0.031
		c-0.255,0-0.492-0.028-0.714-0.084c-0.222-0.057-0.416-0.154-0.587-0.294c-0.17-0.14-0.286-0.302-0.35-0.486
		c-0.062-0.187-0.092-0.396-0.092-0.629c0-0.181,0.02-0.627,0.06-1.34c0.04-0.712,0.06-1.293,0.06-1.744
		c0.077,0.004,0.135,0.005,0.174,0.005s0.096-0.001,0.174-0.005c-0.023,0.255-0.059,0.784-0.104,1.587s-0.067,1.305-0.067,1.506
		c0,0.227,0.028,0.417,0.088,0.573c0.061,0.157,0.162,0.287,0.31,0.39s0.313,0.174,0.498,0.215c0.187,0.043,0.376,0.063,0.571,0.063
		c0.205,0,0.4-0.026,0.59-0.078c0.188-0.052,0.344-0.116,0.469-0.192c0.124-0.078,0.234-0.172,0.329-0.285
		c0.108-0.129,0.203-0.28,0.28-0.452c0.066-0.151,0.117-0.339,0.149-0.563c0.033-0.224,0.062-0.629,0.084-1.215
		c0.021-0.563,0.031-1.078,0.034-1.547c0.08,0.004,0.141,0.005,0.178,0.005c0.039,0,0.098-0.001,0.174-0.005l-0.164,3.111
		l-0.019,0.671C143.498,35.059,143.495,35.294,143.495,35.489z"/>
	<path fill="#4D4D4D" d="M144.753,35.489l0.149-2.716l0.041-1.274c0.006-0.228,0.009-0.394,0.009-0.498
		c0.077,0.004,0.136,0.005,0.174,0.005c0.035,0,0.092-0.001,0.169-0.005l-0.061,1.015c0.065-0.141,0.119-0.246,0.162-0.317
		c0.043-0.073,0.103-0.15,0.177-0.233c0.073-0.083,0.161-0.16,0.265-0.232c0.102-0.072,0.225-0.135,0.369-0.184
		s0.291-0.084,0.441-0.105c0.15-0.022,0.302-0.033,0.449-0.033c0.248,0,0.49,0.027,0.725,0.084s0.429,0.152,0.582,0.291
		c0.154,0.138,0.261,0.297,0.318,0.476c0.059,0.181,0.086,0.371,0.086,0.575c0,0.094-0.004,0.229-0.013,0.409l-0.094,2.021
		l-0.019,0.726c-0.06-0.003-0.117-0.005-0.172-0.005c-0.058,0-0.113,0.002-0.171,0.005c0.029-0.37,0.054-0.726,0.07-1.062
		l0.062-1.139c0.023-0.421,0.035-0.725,0.035-0.911c0-0.194-0.027-0.37-0.084-0.524c-0.057-0.153-0.152-0.281-0.291-0.383
		c-0.138-0.104-0.301-0.178-0.49-0.224s-0.386-0.069-0.586-0.069c-0.281,0-0.531,0.039-0.746,0.116
		c-0.205,0.074-0.385,0.183-0.537,0.326c-0.154,0.144-0.28,0.325-0.379,0.545c-0.074,0.159-0.129,0.383-0.168,0.671
		c-0.035,0.248-0.063,0.655-0.086,1.221c-0.021,0.563-0.033,1.041-0.033,1.433c-0.078-0.003-0.137-0.005-0.178-0.005
		C144.891,35.484,144.83,35.486,144.753,35.489z"/>
	<path fill="#4D4D4D" d="M150.001,35.489c0.033-0.444,0.071-1.22,0.115-2.324s0.065-1.826,0.065-2.164
		c0.076,0.004,0.135,0.005,0.176,0.005c0.045,0,0.104-0.001,0.181-0.005c-0.041,0.563-0.082,1.331-0.122,2.302
		c-0.04,0.973-0.061,1.701-0.061,2.188c-0.076-0.004-0.137-0.006-0.178-0.006S150.078,35.486,150.001,35.489z M150.165,29.864
		l0.013-0.44c0.074,0.003,0.15,0.006,0.227,0.006c0.078,0,0.154-0.003,0.229-0.006l-0.014,0.44
		c-0.074-0.007-0.148-0.009-0.227-0.009S150.238,29.857,150.165,29.864z"/>
	<path fill="#4D4D4D" d="M154.755,35.129c-0.028,0.122-0.051,0.234-0.063,0.338c-0.375,0.074-0.727,0.111-1.053,0.111
		c-0.308,0-0.596-0.043-0.863-0.129c-0.269-0.086-0.498-0.225-0.69-0.415s-0.336-0.431-0.431-0.72
		c-0.092-0.289-0.139-0.592-0.139-0.907c0-0.433,0.072-0.843,0.219-1.234c0.147-0.39,0.382-0.698,0.703-0.925
		c0.32-0.227,0.756-0.34,1.305-0.34c0.398,0,0.779,0.055,1.142,0.164c0.003,0.098,0.015,0.201,0.031,0.312
		c-0.31-0.095-0.55-0.155-0.726-0.185c-0.174-0.029-0.334-0.042-0.479-0.042c-0.313,0-0.587,0.06-0.826,0.18
		c-0.24,0.12-0.439,0.289-0.598,0.509c-0.159,0.219-0.271,0.463-0.338,0.733s-0.102,0.543-0.102,0.815
		c0,0.293,0.037,0.565,0.111,0.819c0.074,0.255,0.191,0.462,0.355,0.622c0.162,0.159,0.362,0.281,0.6,0.366
		c0.236,0.084,0.486,0.126,0.747,0.126c0.146,0,0.299-0.014,0.462-0.042S154.497,35.206,154.755,35.129z"/>
	<path fill="#4D4D4D" d="M156.074,31.473c0.021-0.101,0.037-0.217,0.049-0.347c0.303-0.083,0.564-0.14,0.787-0.171
		c0.222-0.031,0.445-0.047,0.675-0.047c0.265,0,0.509,0.021,0.735,0.068s0.412,0.123,0.556,0.23s0.238,0.23,0.284,0.371
		c0.046,0.14,0.068,0.281,0.068,0.427c0,0.147-0.006,0.335-0.016,0.562c-0.011,0.228-0.023,0.472-0.042,0.731
		c-0.019,0.261-0.034,0.586-0.049,0.976s-0.022,0.67-0.022,0.843v0.373c-0.076-0.003-0.14-0.005-0.187-0.005
		c-0.052,0-0.113,0.002-0.188,0.005c0.043-0.453,0.07-0.82,0.088-1.103c0.017-0.281,0.028-0.585,0.039-0.908
		c0.012-0.324,0.024-0.627,0.043-0.908c-0.093,0.076-0.162,0.134-0.211,0.171c-0.05,0.036-0.104,0.069-0.16,0.1
		c-0.059,0.029-0.127,0.06-0.209,0.091s-0.156,0.059-0.225,0.08s-0.232,0.068-0.496,0.141c-0.262,0.07-0.449,0.123-0.562,0.158
		c-0.255,0.084-0.452,0.162-0.591,0.235c-0.151,0.08-0.277,0.169-0.379,0.267c-0.088,0.086-0.153,0.177-0.194,0.271
		c-0.048,0.111-0.071,0.23-0.071,0.359c0,0.191,0.059,0.358,0.174,0.5c0.115,0.143,0.262,0.242,0.438,0.301
		c0.176,0.058,0.389,0.086,0.638,0.086c0.124,0,0.244-0.007,0.358-0.02c0.115-0.015,0.226-0.031,0.328-0.055
		c0.102-0.021,0.248-0.064,0.44-0.127c-0.026,0.113-0.049,0.227-0.065,0.338c-0.24,0.049-0.436,0.078-0.584,0.092
		c-0.15,0.014-0.291,0.021-0.426,0.021c-0.248,0-0.479-0.021-0.688-0.058c-0.211-0.039-0.387-0.114-0.529-0.228
		c-0.143-0.112-0.247-0.242-0.314-0.392c-0.067-0.146-0.103-0.303-0.103-0.465c0-0.125,0.021-0.246,0.062-0.361
		c0.043-0.117,0.105-0.229,0.191-0.335c0.071-0.089,0.166-0.173,0.284-0.249c0.14-0.096,0.293-0.176,0.462-0.239
		c0.195-0.077,0.405-0.147,0.631-0.213c0.063-0.019,0.307-0.082,0.732-0.19c0.191-0.051,0.373-0.113,0.546-0.188
		c0.172-0.075,0.305-0.181,0.399-0.315c0.094-0.134,0.143-0.271,0.143-0.41c0-0.101-0.021-0.196-0.066-0.291
		c-0.045-0.094-0.123-0.182-0.236-0.265c-0.114-0.083-0.256-0.141-0.426-0.173c-0.168-0.033-0.346-0.049-0.531-0.049
		c-0.217,0-0.42,0.014-0.608,0.042s-0.351,0.061-0.479,0.098C156.438,31.334,156.271,31.393,156.074,31.473z"/>
	<path fill="#4D4D4D" d="M162.171,35.209c-0.022,0.089-0.041,0.184-0.053,0.28c-0.24,0.06-0.461,0.089-0.662,0.089
		c-0.169,0-0.319-0.02-0.451-0.057s-0.239-0.104-0.321-0.199c-0.084-0.096-0.139-0.202-0.164-0.319
		c-0.027-0.117-0.041-0.242-0.041-0.376c0-0.023,0-0.061,0.002-0.109c0.002-0.052,0.008-0.162,0.017-0.334l0.147-2.941h-0.549
		c0.012-0.08,0.021-0.16,0.022-0.24h0.543c0.015-0.188,0.026-0.465,0.036-0.835c0.111-0.015,0.209-0.034,0.292-0.058
		c-0.021,0.479-0.031,0.776-0.031,0.893h1.333c-0.012,0.08-0.02,0.16-0.021,0.24h-1.326l-0.146,3.045l-0.004,0.182
		c0,0.249,0.027,0.43,0.086,0.542s0.141,0.193,0.245,0.244c0.104,0.05,0.214,0.075,0.327,0.075c0.078,0,0.165-0.006,0.255-0.02
		C161.797,35.297,161.951,35.264,162.171,35.209z"/>
	<path fill="#4D4D4D" d="M162.904,35.489c0.033-0.444,0.07-1.22,0.115-2.324c0.043-1.104,0.065-1.826,0.065-2.164
		c0.076,0.004,0.136,0.005,0.177,0.005c0.043,0,0.104-0.001,0.18-0.005c-0.041,0.563-0.082,1.331-0.123,2.302
		c-0.039,0.973-0.06,1.701-0.06,2.188c-0.077-0.004-0.137-0.006-0.178-0.006S162.98,35.486,162.904,35.489z M163.068,29.864
		l0.013-0.44c0.073,0.003,0.149,0.006,0.228,0.006c0.076,0,0.152-0.003,0.228-0.006l-0.015,0.44
		c-0.074-0.007-0.148-0.009-0.227-0.009S163.143,29.857,163.068,29.864z"/>
	<path fill="#4D4D4D" d="M166.623,30.908c0.275,0,0.542,0.037,0.8,0.115c0.259,0.076,0.485,0.207,0.683,0.394
		s0.348,0.429,0.451,0.728c0.103,0.299,0.154,0.615,0.154,0.951c0,0.36-0.055,0.707-0.164,1.038
		c-0.109,0.332-0.265,0.609-0.467,0.833c-0.201,0.225-0.438,0.383-0.708,0.475s-0.56,0.138-0.864,0.138
		c-0.214,0-0.423-0.024-0.629-0.073s-0.398-0.131-0.578-0.247c-0.179-0.114-0.336-0.265-0.471-0.448
		c-0.135-0.183-0.236-0.4-0.307-0.652s-0.104-0.514-0.104-0.786c0-0.478,0.089-0.913,0.267-1.31
		c0.179-0.396,0.443-0.687,0.799-0.873C165.837,31.001,166.217,30.908,166.623,30.908z M166.613,31.157
		c-0.352,0-0.68,0.086-0.981,0.257c-0.302,0.172-0.524,0.434-0.666,0.786c-0.143,0.352-0.214,0.737-0.214,1.157
		c0,0.297,0.041,0.574,0.123,0.836c0.081,0.26,0.212,0.479,0.393,0.658c0.182,0.18,0.377,0.303,0.586,0.373
		c0.207,0.069,0.429,0.104,0.658,0.104c0.264,0,0.512-0.043,0.742-0.129c0.23-0.085,0.436-0.229,0.611-0.43s0.306-0.449,0.389-0.742
		s0.124-0.604,0.124-0.932c0-0.306-0.041-0.592-0.122-0.859c-0.081-0.269-0.208-0.481-0.38-0.645
		c-0.172-0.16-0.367-0.273-0.587-0.339C167.07,31.189,166.846,31.157,166.613,31.157z"/>
	<path fill="#4D4D4D" d="M169.658,35.489l0.15-2.716l0.039-1.274c0.006-0.228,0.01-0.394,0.01-0.498
		c0.076,0.004,0.136,0.005,0.174,0.005c0.035,0,0.092-0.001,0.169-0.005l-0.06,1.015c0.064-0.141,0.118-0.246,0.161-0.317
		c0.044-0.073,0.103-0.15,0.177-0.233c0.073-0.083,0.162-0.16,0.265-0.232s0.225-0.135,0.368-0.184
		c0.145-0.049,0.291-0.084,0.443-0.105c0.149-0.022,0.301-0.033,0.447-0.033c0.249,0,0.491,0.027,0.725,0.084
		c0.234,0.057,0.43,0.152,0.584,0.291c0.153,0.138,0.26,0.297,0.316,0.476c0.059,0.181,0.087,0.371,0.087,0.575
		c0,0.094-0.004,0.229-0.013,0.409l-0.094,2.021l-0.019,0.726c-0.06-0.003-0.116-0.005-0.173-0.005s-0.113,0.002-0.17,0.005
		c0.029-0.37,0.053-0.726,0.07-1.062l0.062-1.139c0.022-0.421,0.035-0.725,0.035-0.911c0-0.194-0.028-0.37-0.084-0.524
		c-0.058-0.153-0.153-0.281-0.291-0.383c-0.138-0.104-0.302-0.178-0.491-0.224s-0.385-0.069-0.586-0.069
		c-0.281,0-0.529,0.039-0.746,0.116c-0.203,0.074-0.384,0.183-0.537,0.326c-0.154,0.144-0.279,0.325-0.378,0.545
		c-0.073,0.159-0.13,0.383-0.169,0.671c-0.035,0.248-0.063,0.655-0.086,1.221c-0.021,0.563-0.033,1.041-0.033,1.433
		c-0.076-0.003-0.136-0.005-0.178-0.005C169.795,35.484,169.734,35.486,169.658,35.489z"/>
</g>
<g>
	<g>
		<path fill="#4D4D4D" d="M29.364,36.217c-0.063-0.113-0.185-0.086-0.278-0.109c-1.243-0.336-2.013-1.379-2.033-2.646
			c-0.046-2.829-0.015-5.66-0.02-8.488c0-0.164,0.048-0.212,0.208-0.234c0.273-0.037,0.503,0.011,0.741,0.158
			c0.459,0.28,0.932,0.541,1.409,0.787c0.18,0.092,0.225,0.201,0.224,0.398c-0.007,1.749,0.002,3.499-0.009,5.249
			c-0.001,0.252,0.068,0.298,0.296,0.298c4.515-0.007,9.032-0.009,13.547,0c0.244,0.003,0.289-0.072,0.288-0.306
			c-0.006-7.226-0.006-14.452,0-21.678c0-0.232-0.067-0.283-0.282-0.282c-1.795,0.009-3.592-0.001-5.387,0.014
			c-0.267,0.002-0.377-0.089-0.479-0.331c-0.215-0.51-0.431-1.021-0.748-1.539c0.572,0,1.092-0.004,1.613,0.001
			c0.252,0.002,0.495-0.037,0.491-0.355c-0.003-0.311-0.247-0.358-0.498-0.356c-0.62,0.003-1.239,0.002-1.859,0.004
			c-0.115,0-0.22,0.006-0.305-0.112c-0.494-0.674-1.066-1.276-1.676-1.829c0.032-0.108,0.108-0.069,0.162-0.069
			c2.918-0.002,5.838-0.006,8.757,0c1.259,0.002,2.323,0.87,2.65,2.131c0.018,0.066-0.021,0.159,0.074,0.194
			c0,8.922,0,17.845,0,26.767c-0.065,0.016-0.064,0.076-0.078,0.124c-0.329,1.204-1.063,1.951-2.282,2.163
			c-0.014,0.002-0.023,0.03-0.035,0.046c-0.042,0-0.085,0-0.126,0c-0.094-0.106-0.216-0.063-0.327-0.063
			c-4.529-0.002-9.059-0.002-13.588,0c-0.11,0-0.233-0.043-0.326,0.063C29.447,36.217,29.405,36.217,29.364,36.217z M36.673,32.818
			c-0.489-0.01-0.909,0.404-0.926,0.91c-0.016,0.513,0.394,0.959,0.898,0.979c0.496,0.018,0.93-0.414,0.938-0.932
			C37.591,33.249,37.191,32.829,36.673,32.818z"/>
		<path fill="#4E4E4E" d="M26.654,2.451c0.375,0.142,0.773,0.118,1.159,0.18c1.539,0.25,3.012,0.718,4.332,1.567
			c1.484,0.954,2.823,2.099,3.742,3.667c1.397,2.382,1.833,4.919,1.113,7.638c-0.363,1.368-1.028,2.557-1.886,3.656
			c-0.595,0.764-1.277,1.423-2.053,1.981c-0.143,0.102-0.178,0.213-0.172,0.377c0.04,1.28,0.494,2.394,1.3,3.354
			c0.5,0.599,1.023,1.176,1.534,1.762c0.067,0.079,0.188,0.158,0.118,0.271c-0.07,0.115-0.173-0.008-0.25-0.03
			c-2.645-0.752-5.106-1.942-7.456-3.378c-0.354-0.219-0.596-0.104-0.906-0.059c-0.699,0.099-1.406,0.131-2.106,0.061
			c-2.837-0.285-5.458-1.162-7.597-3.181c-1.768-1.668-2.918-3.707-3.22-6.196c-0.009-0.069,0.022-0.156-0.065-0.199
			c0-0.669,0-1.34,0-2.009c0.12-0.102,0.09-0.256,0.108-0.384c0.191-1.37,0.717-2.608,1.414-3.771
			c0.91-1.521,2.225-2.626,3.669-3.558c1.318-0.851,2.791-1.316,4.327-1.568c0.398-0.065,0.808-0.044,1.194-0.182
			C25.52,2.451,26.087,2.451,26.654,2.451z M31.561,23.507c0.047-0.079,0.025-0.155,0.003-0.223
			c-0.274-0.869-0.276-1.763-0.25-2.661c0.003-0.151,0.026-0.262,0.163-0.35c0.44-0.287,0.848-0.617,1.245-0.97
			c1.154-1.029,2.077-2.21,2.579-3.719c0.949-2.855,0.388-5.435-1.402-7.737c-1.6-2.057-3.824-3.069-6.27-3.567
			c-1.369-0.279-2.752-0.229-4.133,0.114c-2.515,0.625-4.687,1.767-6.203,4.012c-1.648,2.441-1.919,5.042-0.788,7.759
			c0.778,1.866,2.145,3.235,3.84,4.222c2.16,1.253,4.502,1.673,6.956,1.308c0.637-0.094,1.183-0.065,1.689,0.371
			c0.19,0.164,0.429,0.27,0.651,0.392C30.278,22.811,30.919,23.158,31.561,23.507z"/>
		<path fill="#4E4E4E" d="M29.489,36.217c0.093-0.105,0.216-0.063,0.326-0.063c4.53-0.002,9.059-0.002,13.588,0
			c0.111,0,0.233-0.045,0.327,0.063C38.983,36.217,34.236,36.217,29.489,36.217z"/>
	</g>
</g>
</svg>
