<?xml version="1.0" encoding="utf-8"?>
<!-- Generator: Adobe Illustrator 16.0.0, SVG Export Plug-In . SVG Version: 6.00 Build 0)  -->
<!DOCTYPE svg PUBLIC "-//W3C//DTD SVG 1.0//EN" "http://www.w3.org/TR/2001/REC-SVG-20010904/DTD/svg10.dtd">
<svg version="1.0" id="Layer_1" xmlns="http://www.w3.org/2000/svg" xmlns:xlink="http://www.w3.org/1999/xlink" x="0px" y="0px"
	 width="200px" height="40px" viewBox="0 0 200 40" style="enable-background:new 0 0 200 40;" xml:space="preserve">
<g>
	<path style="fill-rule:evenodd;clip-rule:evenodd;fill:#3C8DBC;" d="M37.658,20.629v16.244c0,0.957-1.027,1.732-2.293,1.732H8.938
		c-1.267,0-2.295-0.775-2.295-1.732V20.629c0-0.075,0.006-0.147,0.019-0.22l2.208-1.51l13.282-9.083l13.281,9.083l2.208,1.51
		C37.652,20.482,37.658,20.554,37.658,20.629z"/>
	<g>
		<path style="fill-rule:evenodd;clip-rule:evenodd;fill:#FFFFFF;" d="M16.669,38.625c0-5.381,0-10.689,0-15.996
			c0-1.086,0.446-1.549,1.553-1.559c1.789-0.016,3.577-0.002,5.366-0.01c0.247,0,0.517,0.086,0.787-0.137
			c0-0.666-0.006-1.363,0.003-2.059c0.007-0.62,0.43-0.906,0.954-0.904c0.526,0.001,0.938,0.295,0.943,0.916
			c0.004,0.57,0.002,1.141,0.001,1.711c-0.001,0.241-0.003,0.456,0.313,0.53c0.876,0.205,1.048,0.82,1.043,1.645
			c-0.025,5.256-0.016,9.941-0.013,15.861c0.002,0,0.004,0,0.006,0L16.669,38.625z"/>
	</g>
	<g>
		<path style="fill-rule:evenodd;clip-rule:evenodd;fill:#3C8DBC;" d="M26.231,28.906c0,0.514-0.418,0.932-0.933,0.932h-6.276
			c-0.516,0-0.934-0.418-0.934-0.932v-5.551c0-0.516,0.418-0.936,0.934-0.936h6.276c0.515,0,0.933,0.42,0.933,0.936V28.906z"/>
		<g>
			<path style="fill-rule:evenodd;clip-rule:evenodd;fill:#3C8DBC;" d="M20.354,32.107c0,0.518-0.418,0.936-0.933,0.936h-0.417
				c-0.516,0-0.934-0.418-0.934-0.936v-0.234c0-0.514,0.418-0.932,0.934-0.932h0.417c0.515,0,0.933,0.418,0.933,0.932V32.107z"/>
			<path style="fill-rule:evenodd;clip-rule:evenodd;fill:#3C8DBC;" d="M26.223,32.107c0,0.518-0.418,0.936-0.933,0.936h-0.417
				c-0.516,0-0.934-0.418-0.934-0.936v-0.234c0-0.514,0.418-0.932,0.934-0.932h0.417c0.515,0,0.933,0.418,0.933,0.932V32.107z"/>
			<path style="fill-rule:evenodd;clip-rule:evenodd;fill:#3C8DBC;" d="M23.288,32.107c0,0.518-0.418,0.936-0.933,0.936h-0.417
				c-0.517,0-0.934-0.418-0.934-0.936v-0.234c0-0.514,0.417-0.932,0.934-0.932h0.417c0.515,0,0.933,0.418,0.933,0.932V32.107z"/>
			<path style="fill-rule:evenodd;clip-rule:evenodd;fill:#3C8DBC;" d="M20.354,34.482c0,0.514-0.418,0.934-0.933,0.934h-0.417
				c-0.516,0-0.934-0.42-0.934-0.934v-0.234c0-0.516,0.418-0.934,0.934-0.934h0.417c0.515,0,0.933,0.418,0.933,0.934V34.482z"/>
			<path style="fill-rule:evenodd;clip-rule:evenodd;fill:#3C8DBC;" d="M26.223,34.482c0,0.514-0.418,0.934-0.933,0.934h-0.417
				c-0.516,0-0.934-0.42-0.934-0.934v-0.234c0-0.516,0.418-0.934,0.934-0.934h0.417c0.515,0,0.933,0.418,0.933,0.934V34.482z"/>
			<path style="fill-rule:evenodd;clip-rule:evenodd;fill:#3C8DBC;" d="M23.288,34.482c0,0.514-0.418,0.934-0.933,0.934h-0.417
				c-0.517,0-0.934-0.42-0.934-0.934v-0.234c0-0.516,0.417-0.934,0.934-0.934h0.417c0.515,0,0.933,0.418,0.933,0.934V34.482z"/>
			<path style="fill-rule:evenodd;clip-rule:evenodd;fill:#3C8DBC;" d="M20.354,36.855c0,0.514-0.418,0.932-0.933,0.932h-0.417
				c-0.516,0-0.934-0.418-0.934-0.932v-0.234c0-0.516,0.418-0.934,0.934-0.934h0.417c0.515,0,0.933,0.418,0.933,0.934V36.855z"/>
			<path style="fill-rule:evenodd;clip-rule:evenodd;fill:#3C8DBC;" d="M26.223,36.855c0,0.514-0.418,0.932-0.933,0.932h-0.417
				c-0.516,0-0.934-0.418-0.934-0.932v-0.234c0-0.516,0.418-0.934,0.934-0.934h0.417c0.515,0,0.933,0.418,0.933,0.934V36.855z"/>
			<path style="fill-rule:evenodd;clip-rule:evenodd;fill:#3C8DBC;" d="M23.288,36.855c0,0.514-0.418,0.932-0.933,0.932h-0.417
				c-0.517,0-0.934-0.418-0.934-0.932v-0.234c0-0.516,0.417-0.934,0.934-0.934h0.417c0.515,0,0.933,0.418,0.933,0.934V36.855z"/>
		</g>
	</g>
</g>
<g>
	<g>
		<path style="fill-rule:evenodd;clip-rule:evenodd;fill:#3C8DBC;" d="M37.65,17.316v2.009c-0.02-0.014-0.038-0.026-0.058-0.037
			l-2.16-1.477L22.151,8.728L8.87,17.811l-2.139,1.463c-0.028,0.016-0.054,0.031-0.08,0.05v-2.057L21.358,7.22V5.189h-1.853
			c-0.494,0-0.895-0.355-0.895-0.792c0-0.219,0.1-0.417,0.263-0.561c0.161-0.143,0.384-0.231,0.631-0.231h1.853V2.27
			c0-0.495,0.355-0.895,0.792-0.895c0.22,0,0.417,0.1,0.56,0.261c0.144,0.162,0.232,0.386,0.232,0.633v1.336h1.853
			c0.495,0,0.895,0.354,0.895,0.792c0,0.219-0.1,0.417-0.261,0.56c-0.162,0.143-0.386,0.232-0.634,0.232h-1.853v2.082L37.65,17.316z
			"/>
	</g>
</g>
<g>
	<rect x="48.956" y="2.512" style="fill-rule:evenodd;clip-rule:evenodd;fill:none;" width="146.378" height="21.699"/>
	<path style="fill:#3C8DBC;" d="M64.17,19.958c-0.119,0.708-0.225,1.475-0.318,2.3c-1.675,0.391-3.21,0.586-4.604,0.586
		c-1.242,0-2.44-0.217-3.597-0.651s-2.162-1.106-3.016-2.015s-1.477-1.978-1.868-3.208s-0.587-2.549-0.587-3.955
		c0-1.504,0.217-2.954,0.65-4.351s1.091-2.58,1.971-3.552s1.942-1.699,3.188-2.183s2.549-0.726,3.909-0.726
		c1.462,0,2.92,0.176,4.374,0.527c0.009,0.495,0.055,1.252,0.141,2.271c-0.944-0.332-1.748-0.554-2.411-0.666
		s-1.292-0.169-1.887-0.169c-1.012,0-1.981,0.179-2.908,0.535c-0.927,0.356-1.748,0.925-2.461,1.706
		c-0.714,0.781-1.261,1.741-1.639,2.879c-0.378,1.138-0.568,2.321-0.568,3.552c0,1.143,0.151,2.227,0.453,3.252
		c0.301,1.025,0.765,1.893,1.39,2.601c0.625,0.708,1.367,1.25,2.226,1.626s1.824,0.563,2.895,0.563
		C60.855,20.881,62.411,20.573,64.17,19.958z"/>
	<path style="fill:#3C8DBC;" d="M67.958,22.521l0.318-6.372l0.292-8.687l0.076-4.937l1.162,0.015c0.29,0,0.668-0.005,1.136-0.015
		l-0.28,5.091l-0.102,3.036c0.204-0.419,0.38-0.754,0.529-1.002c0.149-0.249,0.34-0.498,0.574-0.747
		c0.234-0.248,0.479-0.461,0.733-0.637c0.255-0.175,0.54-0.329,0.854-0.461c0.314-0.131,0.693-0.241,1.135-0.329
		c0.442-0.088,0.905-0.132,1.39-0.132c0.722,0,1.413,0.093,2.072,0.278c0.659,0.186,1.224,0.493,1.696,0.922
		c0.472,0.43,0.795,0.941,0.969,1.537c0.174,0.595,0.261,1.199,0.261,1.814c0,0.244-0.004,0.565-0.013,0.966
		c-0.025,0.604-0.059,1.313-0.101,2.122l-0.214,5.385c-0.025,0.586-0.042,1.303-0.05,2.151c-0.495-0.02-0.874-0.029-1.137-0.029
		c-0.29,0-0.694,0.01-1.214,0.029c0.094-1.054,0.203-2.712,0.327-4.976c0.124-2.264,0.187-3.834,0.187-4.712
		c0-0.78-0.124-1.426-0.37-1.938c-0.247-0.512-0.655-0.904-1.225-1.177c-0.57-0.273-1.203-0.41-1.9-0.41
		c-0.638,0-1.233,0.112-1.786,0.337c-0.502,0.205-0.929,0.492-1.282,0.863s-0.636,0.824-0.848,1.36
		c-0.23,0.575-0.392,1.156-0.485,1.741c-0.145,0.927-0.247,2.214-0.306,3.862c-0.034,0.985-0.081,2.669-0.14,5.049
		c-0.477-0.02-0.834-0.029-1.072-0.029C68.924,22.492,68.528,22.502,67.958,22.521z"/>
	<path style="fill:#3C8DBC;" d="M96.973,22.521c-0.417-0.02-0.774-0.029-1.072-0.029c-0.34,0-0.693,0.01-1.059,0.029l0.063-2.827
		c-0.204,0.439-0.38,0.779-0.529,1.019s-0.333,0.474-0.555,0.703s-0.449,0.422-0.682,0.578c-0.234,0.156-0.508,0.296-0.823,0.418
		s-0.682,0.225-1.103,0.308s-0.869,0.124-1.345,0.124c-1.038,0-1.924-0.181-2.659-0.542s-1.292-0.874-1.67-1.538
		c-0.378-0.664-0.567-1.572-0.567-2.725c0-0.176,0.008-0.474,0.025-0.894s0.042-0.967,0.076-1.641l0.214-4.878l0.038-1.567
		c0.008-0.361,0.012-0.82,0.012-1.377l1.176,0.015c0.238,0,0.604-0.005,1.099-0.015c-0.121,1.709-0.234,3.579-0.342,5.61
		c-0.107,2.031-0.161,3.33-0.161,3.896c0,0.859,0.121,1.546,0.364,2.059c0.242,0.513,0.646,0.908,1.212,1.187
		c0.566,0.278,1.206,0.417,1.92,0.417c0.63,0,1.234-0.127,1.812-0.381c0.494-0.225,0.911-0.527,1.251-0.908
		c0.365-0.42,0.672-0.962,0.918-1.626c0.179-0.488,0.314-1.118,0.408-1.89c0.06-0.557,0.119-1.558,0.179-3.003
		c0.068-1.758,0.114-3.545,0.14-5.361l1.187,0.015c0.255,0,0.613-0.005,1.073-0.015c-0.119,1.758-0.259,4.429-0.42,8.013
		C97.058,17.668,96.998,19.943,96.973,22.521z"/>
	<path style="fill:#3C8DBC;" d="M101.435,22.521c0.306-5.635,0.458-10.132,0.458-13.491l-0.012-1.348
		c0.434,0.01,0.791,0.015,1.07,0.015c0.324,0,0.686-0.005,1.085-0.015l-0.102,2.432c0.314-0.605,0.593-1.062,0.835-1.369
		s0.517-0.562,0.822-0.762c0.307-0.2,0.652-0.356,1.04-0.469c0.387-0.112,0.788-0.169,1.205-0.169c0.356,0,0.71,0.049,1.058,0.146
		c0.01,0.645,0.039,1.367,0.09,2.168c-0.527-0.166-0.998-0.249-1.415-0.249c-0.502,0-0.952,0.096-1.352,0.286
		s-0.759,0.479-1.077,0.864c-0.319,0.386-0.58,0.847-0.785,1.384c-0.17,0.43-0.299,0.986-0.389,1.67
		c-0.089,0.684-0.158,1.929-0.21,3.735c-0.034,1.318-0.051,2.715-0.051,4.189v0.981c-0.46-0.02-0.829-0.029-1.11-0.029
		C102.34,22.492,101.953,22.502,101.435,22.521z"/>
	<path style="fill:#3C8DBC;" d="M121.176,20.295c-0.017,0.156-0.062,0.447-0.133,0.872c-0.073,0.425-0.135,0.842-0.186,1.252
		c-0.621,0.166-1.219,0.278-1.792,0.337s-1.077,0.088-1.511,0.088c-0.918,0-1.767-0.142-2.545-0.425
		c-0.777-0.283-1.456-0.749-2.034-1.398s-1.003-1.455-1.274-2.417c-0.273-0.962-0.408-1.976-0.408-3.04
		c0-1.436,0.221-2.798,0.662-4.087c0.442-1.289,1.14-2.3,2.092-3.032s2.249-1.099,3.891-1.099c1.207,0,2.385,0.186,3.531,0.557
		c0.052,0.83,0.098,1.514,0.141,2.051c-0.808-0.293-1.467-0.49-1.977-0.593s-0.982-0.154-1.416-0.154
		c-0.748,0-1.417,0.156-2.008,0.469c-0.592,0.313-1.096,0.757-1.512,1.333s-0.717,1.26-0.898,2.051
		c-0.184,0.791-0.274,1.597-0.274,2.417c0,1.104,0.148,2.07,0.446,2.9c0.297,0.83,0.818,1.473,1.563,1.927s1.578,0.681,2.506,0.681
		C118.939,20.983,119.986,20.754,121.176,20.295z"/>
	<path style="fill:#3C8DBC;" d="M125.143,22.521l0.318-6.372l0.292-8.687l0.076-4.937l1.161,0.015c0.29,0,0.668-0.005,1.137-0.015
		l-0.279,5.091l-0.103,3.036c0.204-0.419,0.38-0.754,0.529-1.002c0.149-0.249,0.34-0.498,0.573-0.747
		c0.234-0.248,0.479-0.461,0.734-0.637c0.254-0.175,0.539-0.329,0.854-0.461c0.314-0.131,0.693-0.241,1.135-0.329
		c0.442-0.088,0.906-0.132,1.391-0.132c0.723,0,1.413,0.093,2.072,0.278c0.658,0.186,1.224,0.493,1.695,0.922
		c0.473,0.43,0.795,0.941,0.97,1.537c0.174,0.595,0.261,1.199,0.261,1.814c0,0.244-0.004,0.565-0.012,0.966
		c-0.025,0.604-0.059,1.313-0.102,2.122l-0.214,5.385c-0.025,0.586-0.042,1.303-0.05,2.151c-0.495-0.02-0.874-0.029-1.138-0.029
		c-0.29,0-0.694,0.01-1.214,0.029c0.094-1.054,0.203-2.712,0.326-4.976c0.125-2.264,0.188-3.834,0.188-4.712
		c0-0.78-0.124-1.426-0.371-1.938c-0.246-0.512-0.654-0.904-1.225-1.177c-0.569-0.273-1.203-0.41-1.9-0.41
		c-0.637,0-1.232,0.112-1.785,0.337c-0.502,0.205-0.93,0.492-1.282,0.863s-0.636,0.824-0.849,1.36
		c-0.229,0.575-0.391,1.156-0.484,1.741c-0.145,0.927-0.246,2.214-0.307,3.862c-0.033,0.985-0.08,2.669-0.139,5.049
		c-0.478-0.02-0.834-0.029-1.072-0.029C126.108,22.492,125.713,22.502,125.143,22.521z"/>
	<path style="fill:#3C8DBC;" d="M141.594,21.994c-0.033-0.928-0.089-1.733-0.166-2.417c0.901,0.488,1.711,0.833,2.43,1.033
		s1.41,0.3,2.072,0.3c0.639,0,1.23-0.124,1.779-0.373s0.961-0.601,1.237-1.055s0.415-0.975,0.415-1.561
		c0-0.342-0.047-0.661-0.141-0.959s-0.244-0.601-0.453-0.908s-0.57-0.723-1.084-1.245c-0.515-0.522-1.244-1.243-2.188-2.161
		l-0.943-0.923c-0.357-0.352-0.68-0.7-0.969-1.047s-0.532-0.679-0.728-0.996c-0.196-0.317-0.347-0.605-0.452-0.864
		c-0.107-0.259-0.189-0.547-0.249-0.864s-0.089-0.643-0.089-0.975c0-0.84,0.199-1.626,0.599-2.358s1.001-1.318,1.805-1.758
		s1.864-0.659,3.183-0.659c0.943,0,2.104,0.146,3.48,0.439c0.018,0.629,0.077,1.4,0.18,2.314c-1.301-0.527-2.483-0.791-3.546-0.791
		c-0.731,0-1.344,0.139-1.837,0.416c-0.492,0.276-0.867,0.631-1.122,1.063s-0.382,0.877-0.382,1.333c0,0.273,0.033,0.54,0.102,0.799
		s0.17,0.505,0.306,0.739c0.196,0.342,0.438,0.687,0.728,1.033s0.688,0.769,1.198,1.267c0.128,0.117,0.614,0.576,1.46,1.377
		s1.463,1.421,1.85,1.86s0.695,0.848,0.925,1.224s0.408,0.781,0.536,1.216c0.127,0.435,0.191,0.905,0.191,1.413
		c0,0.781-0.147,1.502-0.441,2.161c-0.293,0.659-0.713,1.198-1.262,1.618s-1.158,0.718-1.83,0.894s-1.373,0.264-2.104,0.264
		c-0.587,0-1.192-0.051-1.817-0.153S142.75,22.355,141.594,21.994z"/>
	<path style="fill:#3C8DBC;" d="M155.456,22.521l0.271-2.71l0.801-10.913l0.387-6.372c0.645,0.01,1.204,0.015,1.68,0.015
		c0.44,0,0.975-0.005,1.602-0.015l0.294,1.274c0.085,0.342,0.19,0.742,0.318,1.201s0.349,1.226,0.663,2.3l1.568,5.2l1.949,6.973
		l2.537-6.973l2.892-7.617c0.103-0.273,0.202-0.563,0.3-0.871s0.252-0.804,0.465-1.487c0.553,0.01,1.126,0.015,1.721,0.015
		c0.477,0,1.021-0.005,1.633-0.015l-0.161,6.987l-0.068,4.585c-0.009,0.43-0.013,0.859-0.013,1.289l0.013,3.354v1.89
		c0,0.215,0.009,0.845,0.025,1.89c-0.562-0.02-0.936-0.029-1.122-0.029c-0.264,0-0.65,0.01-1.161,0.029l0.077-1.86l0.191-10.547
		c0.025-1.182,0.038-2.495,0.038-3.94l-0.013-1.201l-5.594,15.425l-0.74,2.124c-0.553-0.02-0.941-0.029-1.162-0.029
		c-0.265,0-0.674,0.01-1.228,0.029l-1.514-5.522l-1.565-5.435l-1.551-5.244c-0.068-0.234-0.184-0.654-0.344-1.26l-0.156,1.714
		l-0.779,12.598c-0.017,0.42-0.031,0.84-0.045,1.26s-0.028,1.05-0.045,1.89l-1.069-0.029
		C156.381,22.492,156.016,22.502,155.456,22.521z"/>
	<path style="fill:#3C8DBC;" d="M178.449,21.994c-0.033-0.928-0.089-1.733-0.166-2.417c0.901,0.488,1.711,0.833,2.43,1.033
		s1.41,0.3,2.072,0.3c0.639,0,1.23-0.124,1.779-0.373s0.961-0.601,1.237-1.055s0.415-0.975,0.415-1.561
		c0-0.342-0.047-0.661-0.141-0.959s-0.244-0.601-0.453-0.908s-0.57-0.723-1.084-1.245c-0.515-0.522-1.244-1.243-2.188-2.161
		l-0.943-0.923c-0.357-0.352-0.68-0.7-0.969-1.047s-0.532-0.679-0.728-0.996c-0.196-0.317-0.347-0.605-0.452-0.864
		c-0.107-0.259-0.189-0.547-0.249-0.864s-0.089-0.643-0.089-0.975c0-0.84,0.199-1.626,0.599-2.358s1.001-1.318,1.805-1.758
		s1.864-0.659,3.183-0.659c0.943,0,2.104,0.146,3.48,0.439c0.018,0.629,0.077,1.4,0.18,2.314c-1.301-0.527-2.483-0.791-3.546-0.791
		c-0.731,0-1.344,0.139-1.837,0.416c-0.492,0.276-0.867,0.631-1.122,1.063s-0.382,0.877-0.382,1.333c0,0.273,0.033,0.54,0.102,0.799
		s0.17,0.505,0.306,0.739c0.196,0.342,0.438,0.687,0.728,1.033s0.688,0.769,1.198,1.267c0.128,0.117,0.614,0.576,1.46,1.377
		s1.463,1.421,1.85,1.86s0.695,0.848,0.925,1.224s0.408,0.781,0.536,1.216c0.127,0.435,0.191,0.905,0.191,1.413
		c0,0.781-0.147,1.502-0.441,2.161c-0.293,0.659-0.713,1.198-1.262,1.618s-1.158,0.718-1.83,0.894s-1.373,0.264-2.104,0.264
		c-0.587,0-1.192-0.051-1.817-0.153S179.605,22.355,178.449,21.994z"/>
</g>
<g>
	<rect x="48.956" y="28.321" style="fill-rule:evenodd;clip-rule:evenodd;fill:none;" width="142.711" height="9.466"/>
	<path style="fill:#6F7375;" d="M49.668,36.659l0.134-2.295l0.15-4.291l0.016-0.934c0.003-0.236,0.005-0.507,0.005-0.812
		c0.8,0.004,1.62,0.006,2.459,0.006l1.694-0.006h0.542c-0.025,0.282-0.041,0.567-0.048,0.854l-0.473-0.031
		c-0.117-0.008-0.318-0.014-0.603-0.018c-0.285-0.005-0.568-0.007-0.848-0.007c-0.836,0-1.418,0.007-1.748,0.019l-0.096,2.856
		c0.545,0.013,1.035,0.019,1.467,0.019c0.471,0,1.089-0.009,1.855-0.024c-0.025,0.284-0.041,0.565-0.048,0.842l-1.829-0.018
		c-0.358,0-0.856,0.008-1.494,0.024l-0.097,3.015l0.553,0.006c1.003,0,1.668-0.004,1.996-0.012c0.328-0.009,0.711-0.026,1.151-0.055
		c-0.025,0.301-0.041,0.588-0.048,0.86c-0.854-0.009-1.575-0.013-2.163-0.013L49.668,36.659z"/>
	<path style="fill:#6F7375;" d="M55.683,36.659l0.113-1.129l0.333-4.548l0.162-2.654c0.268,0.004,0.501,0.006,0.699,0.006
		c0.184,0,0.407-0.002,0.668-0.006l0.122,0.53c0.036,0.143,0.08,0.31,0.133,0.501s0.146,0.511,0.276,0.958l0.653,2.167l0.813,2.905
		l1.057-2.905l1.205-3.174c0.042-0.114,0.084-0.235,0.125-0.363c0.041-0.128,0.105-0.335,0.194-0.619
		c0.23,0.004,0.469,0.006,0.717,0.006c0.198,0,0.425-0.002,0.68-0.006l-0.067,2.911l-0.029,1.91
		c-0.003,0.179-0.005,0.358-0.005,0.537l0.005,1.397v0.788c0,0.089,0.004,0.352,0.011,0.787c-0.234-0.009-0.39-0.013-0.468-0.013
		c-0.11,0-0.271,0.004-0.483,0.013l0.032-0.775l0.08-4.395c0.01-0.492,0.016-1.04,0.016-1.642l-0.005-0.501l-2.331,6.428
		l-0.308,0.885c-0.231-0.009-0.392-0.013-0.484-0.013c-0.11,0-0.281,0.004-0.512,0.013l-0.63-2.301l-0.652-2.265l-0.646-2.186
		c-0.028-0.098-0.076-0.272-0.143-0.524l-0.065,0.714l-0.325,5.249c-0.007,0.175-0.013,0.35-0.019,0.525
		c-0.006,0.175-0.012,0.437-0.019,0.787l-0.445-0.013C56.068,36.646,55.917,36.65,55.683,36.659z"/>
	<path style="fill:#6F7375;" d="M65.115,36.659l0.09-1.386l0.17-4.772l0.021-1.025c0.003-0.163,0.005-0.324,0.005-0.482v-0.665
		c0.443,0.008,0.802,0.012,1.079,0.012c0.167,0,0.422-0.004,0.765-0.012c0.344-0.009,0.601-0.013,0.771-0.013
		c0.45,0,0.783,0.038,0.999,0.113c0.216,0.075,0.407,0.201,0.574,0.378s0.298,0.396,0.394,0.656s0.144,0.547,0.144,0.86
		c0,0.513-0.114,0.974-0.34,1.383s-0.536,0.714-0.927,0.915c-0.392,0.202-0.828,0.303-1.31,0.303c-0.255,0-0.538-0.033-0.85-0.098
		c-0.053-0.281-0.113-0.535-0.181-0.763c0.276,0.061,0.545,0.091,0.808,0.091c0.255,0,0.499-0.033,0.731-0.101
		c0.232-0.067,0.431-0.179,0.598-0.336c0.167-0.156,0.296-0.353,0.388-0.589c0.092-0.235,0.138-0.486,0.138-0.75
		c0-0.208-0.034-0.4-0.101-0.577c-0.067-0.177-0.161-0.317-0.279-0.421c-0.119-0.104-0.253-0.174-0.404-0.211
		c-0.15-0.036-0.369-0.055-0.656-0.055h-0.446l-0.558,0.012l-0.414-0.006c-0.042,0.892-0.073,1.701-0.09,2.43l-0.074,2.508
		c-0.025,0.952-0.037,1.589-0.037,1.911v0.689l-0.495-0.013C65.565,36.646,65.396,36.65,65.115,36.659z"/>
	<path style="fill:#6F7375;" d="M74.898,28.193c0.524,0,1.022,0.088,1.493,0.263s0.886,0.464,1.246,0.866
		c0.359,0.403,0.615,0.854,0.768,1.355c0.152,0.5,0.229,1.044,0.229,1.63c0,0.626-0.085,1.229-0.255,1.807
		c-0.17,0.577-0.432,1.067-0.787,1.471c-0.354,0.402-0.79,0.705-1.307,0.906s-1.061,0.302-1.631,0.302
		c-0.542,0-1.062-0.091-1.56-0.274c-0.498-0.183-0.922-0.465-1.272-0.846c-0.351-0.38-0.604-0.827-0.76-1.343
		c-0.156-0.515-0.233-1.061-0.233-1.639c0-0.635,0.094-1.244,0.281-1.828c0.188-0.583,0.465-1.077,0.832-1.479
		c0.366-0.403,0.809-0.702,1.328-0.897S74.332,28.193,74.898,28.193z M74.84,29.012c-0.425,0-0.827,0.078-1.206,0.234
		c-0.379,0.156-0.709,0.407-0.991,0.753s-0.491,0.752-0.627,1.22s-0.205,0.955-0.205,1.464c0,0.472,0.067,0.924,0.202,1.356
		c0.135,0.433,0.333,0.794,0.595,1.083c0.262,0.288,0.578,0.503,0.946,0.643c0.369,0.141,0.753,0.211,1.153,0.211
		c0.411,0,0.803-0.075,1.177-0.226c0.374-0.15,0.696-0.39,0.967-0.717s0.472-0.723,0.603-1.187c0.131-0.463,0.197-0.949,0.197-1.457
		c0-0.479-0.06-0.938-0.178-1.375c-0.119-0.438-0.308-0.811-0.568-1.119s-0.569-0.533-0.927-0.674S75.24,29.012,74.84,29.012z"/>
	<path style="fill:#6F7375;" d="M81.772,36.659l-0.835-3.07l-1.516-5.261c0.195,0.004,0.368,0.006,0.517,0.006
		c0.16,0,0.332-0.002,0.517-0.006l0.94,3.638l0.728,2.697l0.276,0.971c0.541-1.286,1.056-2.597,1.544-3.931
		c-0.312-1.156-0.638-2.281-0.978-3.375c0.195,0.004,0.369,0.006,0.521,0.006c0.159,0,0.332-0.002,0.516-0.006
		c0.096,0.419,0.176,0.759,0.241,1.019c0.065,0.261,0.159,0.599,0.279,1.014c0.206-0.505,0.449-1.183,0.729-2.032
		c0.195,0.004,0.37,0.006,0.526,0.006c0.167,0,0.341-0.002,0.526-0.006c-0.475,1.106-0.934,2.235-1.376,3.387
		c0.327,1.303,0.687,2.608,1.082,3.919l1.413-3.626l1.025-2.722l0.345-0.958c0.198,0.004,0.372,0.006,0.52,0.006
		c0.156,0,0.327-0.002,0.515-0.006l-1.693,4.156l-1.21,3.052l-0.43,1.123c-0.195-0.009-0.38-0.013-0.554-0.013
		c-0.188,0-0.373,0.004-0.554,0.013c-0.313-1.225-0.653-2.428-1.022-3.607c-0.52,1.196-1.01,2.398-1.469,3.607
		c-0.191-0.009-0.379-0.013-0.563-0.013C82.138,36.646,81.953,36.65,81.772,36.659z"/>
	<path style="fill:#6F7375;" d="M90.324,36.659l0.134-2.295l0.15-4.291l0.016-0.934c0.003-0.236,0.005-0.507,0.005-0.812
		c0.8,0.004,1.62,0.006,2.459,0.006l1.694-0.006h0.542c-0.025,0.282-0.041,0.567-0.048,0.854l-0.473-0.031
		c-0.117-0.008-0.318-0.014-0.603-0.018c-0.285-0.005-0.568-0.007-0.848-0.007c-0.836,0-1.418,0.007-1.748,0.019l-0.096,2.856
		c0.545,0.013,1.035,0.019,1.467,0.019c0.471,0,1.089-0.009,1.855-0.024c-0.025,0.284-0.041,0.565-0.048,0.842l-1.829-0.018
		c-0.358,0-0.856,0.008-1.494,0.024l-0.097,3.015l0.553,0.006c1.003,0,1.668-0.004,1.996-0.012c0.328-0.009,0.711-0.026,1.151-0.055
		c-0.025,0.301-0.041,0.588-0.048,0.86c-0.854-0.009-1.575-0.013-2.163-0.013L90.324,36.659z"/>
	<path style="fill:#6F7375;" d="M96.472,36.659l0.106-1.642l0.122-3.034l0.053-2.551c0.007-0.517,0.011-0.885,0.011-1.104
		c0.425,0.008,0.778,0.012,1.058,0.012c0.241,0,0.508-0.004,0.8-0.012c0.292-0.009,0.533-0.013,0.72-0.013
		c0.33,0,0.63,0.026,0.901,0.079s0.514,0.174,0.728,0.363s0.372,0.409,0.473,0.659s0.151,0.534,0.151,0.852
		c0,0.306-0.04,0.588-0.119,0.849c-0.08,0.26-0.196,0.496-0.351,0.708c-0.154,0.211-0.337,0.385-0.55,0.519
		c-0.163,0.102-0.367,0.186-0.611,0.25c-0.163,0.041-0.386,0.08-0.669,0.116l0.935,1.715l0.967,1.703
		c0.067,0.118,0.165,0.295,0.292,0.531c-0.274-0.009-0.458-0.013-0.55-0.013c-0.099,0-0.287,0.004-0.566,0.013l-0.383-0.836
		c-0.078-0.163-0.156-0.324-0.234-0.482c-0.078-0.159-0.163-0.33-0.256-0.513l-1.204-2.252c-0.049-0.09-0.131-0.247-0.245-0.471
		c0.272,0.058,0.513,0.086,0.723,0.086c0.354,0,0.675-0.067,0.964-0.201c0.289-0.135,0.512-0.343,0.669-0.626
		s0.236-0.598,0.236-0.943c0-0.187-0.024-0.36-0.074-0.521s-0.128-0.296-0.236-0.406c-0.108-0.109-0.214-0.188-0.319-0.237
		s-0.239-0.086-0.404-0.11c-0.165-0.024-0.339-0.036-0.523-0.036l-0.755,0.012c-0.326,0-0.533-0.002-0.622-0.006
		c-0.109,2.734-0.176,5.249-0.201,7.544l-0.521-0.013C96.91,36.646,96.738,36.65,96.472,36.659z"/>
	<path style="fill:#6F7375;" d="M102.642,36.659l0.079-1.404l0.111-2.923l0.074-2.881c0.004-0.167,0.006-0.334,0.006-0.501
		l-0.006-0.622l0.549,0.006l0.516-0.006c-0.064,1.017-0.111,2.079-0.144,3.186c-0.057,1.774-0.097,3.489-0.122,5.146l-0.5-0.013
		C103.142,36.646,102.953,36.65,102.642,36.659z"/>
	<path style="fill:#6F7375;" d="M105.346,36.659l0.107-1.697l0.182-4.956l0.021-0.964c0.003-0.306,0.005-0.543,0.005-0.714
		c0.265,0.004,0.486,0.006,0.663,0.006c0.145,0,0.349-0.002,0.61-0.006l0.579,1.074l3.514,6.085l0.222-7.159l0.474,0.006
		l0.468-0.006l-0.116,2.136l-0.143,3.766l-0.064,2.43c-0.209-0.009-0.414-0.013-0.615-0.013c-0.184,0-0.398,0.004-0.643,0.013
		l-0.488-0.897l-3.601-6.195c-0.015,0.229-0.028,0.586-0.042,1.074l-0.148,4.315l-0.031,1.703c-0.23-0.009-0.385-0.013-0.463-0.013
		C105.779,36.646,105.615,36.65,105.346,36.659z"/>
	<path style="fill:#6F7375;" d="M117.68,31.99c0.613,0.004,1.084,0.006,1.414,0.006c0.35,0,0.745-0.002,1.185-0.006
		c-0.08,1.216-0.139,2.686-0.175,4.406c-1.072,0.265-1.99,0.396-2.751,0.396c-0.563,0-1.102-0.083-1.616-0.25
		c-0.516-0.167-0.95-0.421-1.305-0.763c-0.354-0.342-0.619-0.781-0.799-1.318c-0.178-0.537-0.268-1.104-0.268-1.703
		c0-0.68,0.112-1.319,0.338-1.92c0.225-0.6,0.541-1.104,0.947-1.51c0.408-0.407,0.867-0.698,1.377-0.873s1.075-0.263,1.695-0.263
		c0.68,0,1.438,0.104,2.273,0.312c0.008,0.305,0.025,0.635,0.054,0.988c-0.496-0.187-0.925-0.316-1.286-0.388
		c-0.361-0.07-0.694-0.106-0.998-0.106c-0.479,0-0.934,0.082-1.366,0.247s-0.803,0.417-1.11,0.757
		c-0.309,0.34-0.543,0.76-0.701,1.261c-0.16,0.5-0.24,1.017-0.24,1.55c0,0.477,0.064,0.923,0.194,1.34s0.325,0.758,0.587,1.022
		c0.263,0.265,0.582,0.467,0.959,0.607c0.378,0.141,0.787,0.211,1.23,0.211c0.241,0,0.527-0.025,0.861-0.077
		c0.332-0.051,0.67-0.137,1.01-0.259l0.105-2.887h-0.499c-0.333,0-0.716,0.01-1.147,0.03C117.67,32.509,117.68,32.238,117.68,31.99z
		"/>
	<path style="fill:#6F7375;" d="M125.879,36.659l0.106-1.868l0.144-3.869l0.047-1.788c-0.867,0.004-1.626,0.021-2.277,0.055
		c0.021-0.326,0.033-0.612,0.037-0.86c0.899,0.004,1.87,0.006,2.911,0.006l1.7-0.006h0.903c-0.024,0.36-0.037,0.647-0.037,0.86
		c-0.55-0.037-1.157-0.055-1.823-0.055h-0.436l-0.111,2.701l-0.11,3.806v1.019l-0.511-0.013
		C126.375,36.646,126.195,36.65,125.879,36.659z"/>
	<path style="fill:#6F7375;" d="M130.077,36.659l0.175-3.681l0.085-2.808l0.017-0.964c0.003-0.139,0.004-0.432,0.004-0.879
		l0.543,0.006l0.506-0.006l-0.154,3.655h4.314l0.095-2.898c0.004-0.103,0.005-0.354,0.005-0.757l0.543,0.006l0.506-0.006
		c-0.092,1.611-0.158,3.059-0.199,4.342c-0.041,1.284-0.068,2.613-0.082,3.989l-0.521-0.013c-0.053,0-0.235,0.004-0.547,0.013
		c0.092-1.27,0.147-2.556,0.169-3.857h-4.313l-0.074,2.502l-0.021,1.355l-0.537-0.013C130.538,36.646,130.367,36.65,130.077,36.659z
		"/>
	<path style="fill:#6F7375;" d="M138.09,36.659l0.135-2.295l0.149-4.291l0.017-0.934c0.003-0.236,0.005-0.507,0.005-0.812
		c0.8,0.004,1.62,0.006,2.459,0.006l1.694-0.006h0.542c-0.024,0.282-0.041,0.567-0.048,0.854l-0.473-0.031
		c-0.117-0.008-0.318-0.014-0.604-0.018c-0.285-0.005-0.568-0.007-0.848-0.007c-0.836,0-1.418,0.007-1.748,0.019l-0.096,2.856
		c0.545,0.013,1.034,0.019,1.467,0.019c0.471,0,1.089-0.009,1.854-0.024c-0.024,0.284-0.041,0.565-0.048,0.842l-1.828-0.018
		c-0.358,0-0.856,0.008-1.494,0.024l-0.097,3.015l0.554,0.006c1.002,0,1.668-0.004,1.996-0.012c0.328-0.009,0.711-0.026,1.15-0.055
		c-0.024,0.301-0.041,0.588-0.047,0.86c-0.854-0.009-1.575-0.013-2.164-0.013L138.09,36.659z"/>
	<path style="fill:#6F7375;" d="M152.592,35.591c-0.05,0.295-0.094,0.614-0.133,0.958c-0.697,0.163-1.338,0.244-1.918,0.244
		c-0.518,0-1.018-0.091-1.499-0.271s-0.9-0.461-1.257-0.839c-0.355-0.379-0.615-0.824-0.778-1.337s-0.244-1.062-0.244-1.647
		c0-0.627,0.091-1.231,0.271-1.813c0.182-0.582,0.455-1.075,0.821-1.479c0.366-0.405,0.81-0.708,1.329-0.91
		c0.519-0.201,1.062-0.302,1.628-0.302c0.609,0,1.218,0.073,1.823,0.22c0.003,0.206,0.022,0.521,0.059,0.946
		c-0.394-0.139-0.729-0.231-1.005-0.278c-0.276-0.046-0.538-0.069-0.786-0.069c-0.422,0-0.826,0.074-1.212,0.223
		s-0.728,0.385-1.025,0.711c-0.298,0.325-0.525,0.726-0.683,1.199c-0.158,0.474-0.236,0.968-0.236,1.48
		c0,0.476,0.063,0.928,0.188,1.354c0.127,0.428,0.319,0.788,0.58,1.083c0.26,0.296,0.569,0.521,0.928,0.678
		c0.357,0.157,0.76,0.235,1.205,0.235C151.211,35.976,151.858,35.848,152.592,35.591z"/>
	<path style="fill:#6F7375;" d="M153.814,36.659l0.174-3.681l0.086-2.808l0.016-0.964c0.004-0.139,0.005-0.432,0.005-0.879
		l0.542,0.006l0.506-0.006l-0.154,3.655h4.314l0.096-2.898c0.004-0.103,0.005-0.354,0.005-0.757l0.542,0.006l0.506-0.006
		c-0.092,1.611-0.158,3.059-0.199,4.342c-0.04,1.284-0.067,2.613-0.082,3.989l-0.521-0.013c-0.053,0-0.234,0.004-0.547,0.013
		c0.092-1.27,0.148-2.556,0.17-3.857h-4.314l-0.074,2.502l-0.021,1.355l-0.537-0.013C154.275,36.646,154.104,36.65,153.814,36.659z"
		/>
	<path style="fill:#6F7375;" d="M162.092,28.328l0.526,0.006l0.517-0.006l-0.24,4.656l-0.016,0.568v0.115
		c0,0.565,0.072,1.004,0.219,1.315c0.145,0.312,0.376,0.553,0.693,0.724c0.316,0.171,0.718,0.256,1.203,0.256
		c0.326,0,0.627-0.049,0.903-0.146c0.23-0.085,0.427-0.199,0.587-0.342c0.162-0.143,0.295-0.317,0.402-0.524
		c0.099-0.199,0.17-0.426,0.212-0.678c0.05-0.317,0.094-0.871,0.132-1.66l0.096-1.965c0.027-0.725,0.047-1.498,0.058-2.319
		l0.548,0.006l0.496-0.006l-0.156,2.874l-0.096,2.381c-0.031,0.553-0.083,0.982-0.154,1.288c-0.053,0.215-0.131,0.419-0.233,0.61
		c-0.093,0.171-0.206,0.323-0.34,0.457c-0.159,0.163-0.353,0.308-0.579,0.434c-0.24,0.13-0.496,0.228-0.766,0.293
		c-0.386,0.086-0.785,0.128-1.2,0.128c-0.403,0-0.78-0.047-1.132-0.14c-0.305-0.082-0.584-0.206-0.84-0.373
		c-0.254-0.167-0.458-0.355-0.61-0.567c-0.128-0.171-0.229-0.387-0.303-0.646c-0.085-0.293-0.128-0.617-0.128-0.971
		c0-0.379,0.014-0.812,0.04-1.3s0.06-1.226,0.101-2.21C162.071,29.602,162.092,28.849,162.092,28.328z"/>
	<path style="fill:#6F7375;" d="M169.724,36.659l0.106-1.642l0.121-3.034l0.053-2.551c0.008-0.517,0.012-0.885,0.012-1.104
		c0.425,0.008,0.777,0.012,1.057,0.012c0.242,0,0.508-0.004,0.801-0.012c0.292-0.009,0.532-0.013,0.72-0.013
		c0.329,0,0.63,0.026,0.901,0.079c0.271,0.053,0.514,0.174,0.728,0.363s0.372,0.409,0.474,0.659c0.101,0.25,0.15,0.534,0.15,0.852
		c0,0.306-0.039,0.588-0.119,0.849c-0.08,0.26-0.196,0.496-0.35,0.708c-0.154,0.211-0.338,0.385-0.551,0.519
		c-0.162,0.102-0.366,0.186-0.611,0.25c-0.162,0.041-0.385,0.08-0.668,0.116l0.934,1.715l0.967,1.703
		c0.068,0.118,0.166,0.295,0.293,0.531c-0.275-0.009-0.459-0.013-0.551-0.013c-0.098,0-0.287,0.004-0.565,0.013l-0.384-0.836
		c-0.078-0.163-0.156-0.324-0.234-0.482c-0.078-0.159-0.162-0.33-0.256-0.513l-1.203-2.252c-0.049-0.09-0.131-0.247-0.244-0.471
		c0.271,0.058,0.513,0.086,0.723,0.086c0.354,0,0.675-0.067,0.964-0.201c0.288-0.135,0.512-0.343,0.669-0.626
		c0.158-0.283,0.236-0.598,0.236-0.943c0-0.187-0.023-0.36-0.074-0.521c-0.049-0.161-0.128-0.296-0.236-0.406
		c-0.107-0.109-0.214-0.188-0.318-0.237s-0.239-0.086-0.404-0.11c-0.164-0.024-0.339-0.036-0.523-0.036l-0.754,0.012
		c-0.326,0-0.533-0.002-0.622-0.006c-0.109,2.734-0.177,5.249-0.201,7.544l-0.521-0.013C170.162,36.646,169.99,36.65,169.724,36.659
		z"/>
	<path style="fill:#6F7375;" d="M181.516,35.591c-0.051,0.295-0.094,0.614-0.133,0.958c-0.698,0.163-1.338,0.244-1.919,0.244
		c-0.517,0-1.017-0.091-1.499-0.271c-0.48-0.181-0.9-0.461-1.256-0.839c-0.355-0.379-0.615-0.824-0.779-1.337
		c-0.162-0.513-0.244-1.062-0.244-1.647c0-0.627,0.091-1.231,0.271-1.813s0.454-1.075,0.82-1.479
		c0.367-0.405,0.811-0.708,1.329-0.91c0.519-0.201,1.062-0.302,1.628-0.302c0.609,0,1.218,0.073,1.823,0.22
		c0.003,0.206,0.022,0.521,0.059,0.946c-0.394-0.139-0.728-0.231-1.005-0.278c-0.275-0.046-0.538-0.069-0.786-0.069
		c-0.421,0-0.825,0.074-1.212,0.223c-0.386,0.148-0.728,0.385-1.025,0.711c-0.297,0.325-0.525,0.726-0.683,1.199
		s-0.236,0.968-0.236,1.48c0,0.476,0.063,0.928,0.188,1.354c0.126,0.428,0.318,0.788,0.58,1.083c0.26,0.296,0.568,0.521,0.927,0.678
		c0.357,0.157,0.76,0.235,1.206,0.235C180.134,35.976,180.781,35.848,181.516,35.591z"/>
	<path style="fill:#6F7375;" d="M182.737,36.659l0.175-3.681l0.085-2.808l0.017-0.964c0.003-0.139,0.004-0.432,0.004-0.879
		l0.543,0.006l0.506-0.006l-0.154,3.655h4.314l0.095-2.898c0.004-0.103,0.005-0.354,0.005-0.757l0.543,0.006l0.506-0.006
		c-0.092,1.611-0.158,3.059-0.199,4.342c-0.041,1.284-0.068,2.613-0.082,3.989l-0.521-0.013c-0.053,0-0.235,0.004-0.547,0.013
		c0.092-1.27,0.147-2.556,0.169-3.857h-4.313l-0.074,2.502l-0.021,1.355l-0.537-0.013C183.198,36.646,183.027,36.65,182.737,36.659z
		"/>
</g>
<g>
</g>
<g>
</g>
<g>
</g>
<g>
</g>
<g>
</g>
<g>
</g>
<g>
</g>
<g>
</g>
<g>
</g>
<g>
</g>
<g>
</g>
<g>
</g>
<g>
</g>
<g>
</g>
<g>
</g>
</svg>
